<svg xmlns="http://www.w3.org/2000/svg" viewBox="0 0 2766 2193" width="2766" height="2193" role="img" aria-labelledby="t d" font-family="Segoe UI, Helvetica, Arial, sans-serif">
<title id="t">DS-07 - Secuencia de CU-07 «Derivar ante peligro»</title>
<desc id="d">Diagrama de secuencia UML. 9 participantes, 26 mensajes.</desc>
<rect x="0" y="0" width="2766" height="2193" fill="#FFFFFF"/>
<text x="24" y="26" font-size="15" font-weight="600" fill="#2C2C2A">DS-07 - Secuencia de CU-07 «Derivar ante peligro»</text>
<line x1="77.3" y1="103.0" x2="77.3" y2="2165.0" stroke="#B4B2A9" stroke-width="1" stroke-dasharray="4 4"/>
<line x1="487.5" y1="80.0" x2="487.5" y2="2165.0" stroke="#B4B2A9" stroke-width="1" stroke-dasharray="4 4"/>
<line x1="881.2" y1="80.0" x2="881.2" y2="2165.0" stroke="#B4B2A9" stroke-width="1" stroke-dasharray="4 4"/>
<line x1="1325.7" y1="67.0" x2="1325.7" y2="2165.0" stroke="#B4B2A9" stroke-width="1" stroke-dasharray="4 4"/>
<line x1="1643.2" y1="67.0" x2="1643.2" y2="2165.0" stroke="#B4B2A9" stroke-width="1" stroke-dasharray="4 4"/>
<line x1="1898.1" y1="67.0" x2="1898.1" y2="2165.0" stroke="#B4B2A9" stroke-width="1" stroke-dasharray="4 4"/>
<line x1="2134.8" y1="67.0" x2="2134.8" y2="2165.0" stroke="#B4B2A9" stroke-width="1" stroke-dasharray="4 4"/>
<line x1="2360.8" y1="67.0" x2="2360.8" y2="2165.0" stroke="#B4B2A9" stroke-width="1" stroke-dasharray="4 4"/>
<line x1="2657.9" y1="67.0" x2="2657.9" y2="2165.0" stroke="#B4B2A9" stroke-width="1" stroke-dasharray="4 4"/>
<rect x="1287.7" y="513.0" width="76.0" height="92.0" fill="none" stroke="#993C1D" stroke-width="1" rx="3"/>
<polygon points="1287.7000000000003,513 1349.7000000000003,513 1349.7000000000003,525 1341.7000000000003,533 1287.7000000000003,533" fill="#FAECE7" stroke="#993C1D" stroke-width="1"/>
<text x="1296.7000000000003" y="527" font-size="10" font-weight="600" fill="#993C1D">opt</text>
<text x="1359.7000000000003" y="527" font-size="10" fill="#993C1D">[FE-01 el]</text>
<rect x="843.2" y="856.0" width="76.0" height="176.0" fill="none" stroke="#993C1D" stroke-width="1" rx="3"/>
<polygon points="843.1500000000001,856 905.1500000000001,856 905.1500000000001,868 897.1500000000001,876 843.1500000000001,876" fill="#FAECE7" stroke="#993C1D" stroke-width="1"/>
<text x="852.1500000000001" y="870" font-size="10" font-weight="600" fill="#993C1D">alt</text>
<text x="915.1500000000001" y="870" font-size="10" fill="#993C1D">[FE-02 el]</text>
<line x1="843.2" y1="950.0" x2="919.2" y2="950.0" stroke="#993C1D" stroke-width="1" stroke-dasharray="5 4"/>
<text x="853.2" y="963.0" font-size="10" fill="#993C1D">[el texto]</text>
<rect x="843.2" y="1090.0" width="1329.6" height="216.0" fill="none" stroke="#993C1D" stroke-width="1" rx="3"/>
<polygon points="843.1500000000001,1090 905.1500000000001,1090 905.1500000000001,1102 897.1500000000001,1110 843.1500000000001,1110" fill="#FAECE7" stroke="#993C1D" stroke-width="1"/>
<text x="852.1500000000001" y="1104" font-size="10" font-weight="600" fill="#993C1D">alt</text>
<text x="915.1500000000001" y="1104" font-size="10" fill="#993C1D">[FA-01 el entorno no entrega ningun recurso presentable]</text>
<line x1="843.2" y1="1184.0" x2="2172.8" y2="1184.0" stroke="#993C1D" stroke-width="1" stroke-dasharray="5 4"/>
<text x="853.2" y="1197.0" font-size="10" fill="#993C1D">[hay recursos presentables]</text>
<rect x="1287.7" y="1396.0" width="1408.2" height="66.0" fill="none" stroke="#993C1D" stroke-width="1" rx="3"/>
<polygon points="1287.7000000000003,1396 1349.7000000000003,1396 1349.7000000000003,1408 1341.7000000000003,1416 1287.7000000000003,1416" fill="#FAECE7" stroke="#993C1D" stroke-width="1"/>
<text x="1296.7000000000003" y="1410" font-size="10" font-weight="600" fill="#993C1D">opt</text>
<text x="1359.7000000000003" y="1410" font-size="10" fill="#993C1D">[FE-03 el Administrador deshabilita el chatbot durante la derivacion]</text>
<rect x="39.3" y="1560.0" width="879.8" height="106.0" fill="none" stroke="#993C1D" stroke-width="1" rx="3"/>
<polygon points="39.349999999999994,1560 101.35,1560 101.35,1572 93.35,1580 39.349999999999994,1580" fill="#FAECE7" stroke="#993C1D" stroke-width="1"/>
<text x="48.349999999999994" y="1574" font-size="10" font-weight="600" fill="#993C1D">opt</text>
<text x="111.35" y="1574" font-size="10" fill="#993C1D">[FA-02 el Usuario envia otro mensaje en la misma conversacion suspendida]</text>
<rect x="449.5" y="2011.0" width="914.2" height="66.0" fill="none" stroke="#993C1D" stroke-width="1" rx="3"/>
<polygon points="449.5,2011 511.5,2011 511.5,2023 503.5,2031 449.5,2031" fill="#FAECE7" stroke="#993C1D" stroke-width="1"/>
<text x="458.5" y="2025" font-size="10" font-weight="600" fill="#993C1D">opt</text>
<text x="521.5" y="2025" font-size="10" fill="#993C1D">[FA-03 en la conversacion nueva el gate vuelve a decidir peligro]</text>
<line x1="57.3" y1="263.0" x2="2677.9" y2="263.0" stroke="#8a8a8a" stroke-width="1"/>
<rect x="1247.7" y="252.0" width="239.8" height="22" rx="3" fill="#FFFFFF" stroke="#B4B2A9" stroke-width="1"/>
<text x="1367.6" y="267.0" font-size="11" font-weight="600" text-anchor="middle" fill="#5F5E5A">Pasos 1 y 2 - Entrada en modo seguro</text>
<line x1="57.3" y1="726.0" x2="2677.9" y2="726.0" stroke="#8a8a8a" stroke-width="1"/>
<rect x="1244.7" y="715.0" width="245.9" height="22" rx="3" fill="#FFFFFF" stroke="#B4B2A9" stroke-width="1"/>
<text x="1367.6" y="730.0" font-size="11" font-weight="600" text-anchor="middle" fill="#5F5E5A">Pasos 3 y 4 - Contencion y derivacion</text>
<line x1="57.3" y1="1332.0" x2="2677.9" y2="1332.0" stroke="#8a8a8a" stroke-width="1"/>
<rect x="1202.4" y="1321.0" width="330.6" height="22" rx="3" fill="#FFFFFF" stroke="#B4B2A9" stroke-width="1"/>
<text x="1367.6" y="1336.0" font-size="11" font-weight="600" text-anchor="middle" fill="#5F5E5A">Pasos 5 y 6 - Marca del turno y suspension del chat</text>
<line x1="57.3" y1="1692.0" x2="2677.9" y2="1692.0" stroke="#8a8a8a" stroke-width="1"/>
<rect x="1184.2" y="1681.0" width="366.9" height="22" rx="3" fill="#FFFFFF" stroke="#B4B2A9" stroke-width="1"/>
<text x="1367.6" y="1696.0" font-size="11" font-weight="600" text-anchor="middle" fill="#5F5E5A">Paso 8 y luego paso 7 - Descarte del turno y sesion nueva</text>
<line x1="77.3" y1="307.0" x2="487.5" y2="307.0" stroke="#5F5E5A" stroke-width="1.3"/>
<polygon points="485.5,307 478.5,303.6 478.5,310.4" fill="#5F5E5A" stroke="#5F5E5A" stroke-width="1.2"/>
<rect x="162.9" y="282.0" width="239.0" height="15.0" fill="#FFFFFF"/>
<text x="166.9" y="294.0" font-size="10" fill="#2C2C2A">PRE-02 envio un mensaje que el gate evaluo</text>
<line x1="487.5" y1="347.0" x2="1325.7" y2="347.0" stroke="#5F5E5A" stroke-width="1.3"/>
<polygon points="1323.7000000000003,347 1316.7000000000003,343.6 1316.7000000000003,350.4" fill="#5F5E5A" stroke="#5F5E5A" stroke-width="1.2"/>
<rect x="795.4" y="322.0" width="222.5" height="15.0" fill="#FFFFFF"/>
<text x="799.4" y="334.0" font-size="10" fill="#2C2C2A">activar(veredicto de peligro explicito)</text>
<line x1="1325.7" y1="387.0" x2="1643.2" y2="387.0" stroke="#5F5E5A" stroke-width="1.3"/>
<polygon points="1641.2000000000003,387 1634.2000000000003,383.6 1634.2000000000003,390.4" fill="#5F5E5A" stroke="#5F5E5A" stroke-width="1.2"/>
<rect x="1378.7" y="362.0" width="211.5" height="15.0" fill="#FFFFFF"/>
<text x="1382.7" y="374.0" font-size="10" fill="#2C2C2A">suspenderRespuestaOrdinariaDelTurno()</text>
<line x1="1325.7" y1="427.0" x2="1898.1" y2="427.0" stroke="#5F5E5A" stroke-width="1.3"/>
<polygon points="1896.0500000000002,427 1889.0500000000002,423.6 1889.0500000000002,430.4" fill="#5F5E5A" stroke="#5F5E5A" stroke-width="1.2"/>
<rect x="1522.6" y="402.0" width="178.5" height="15.0" fill="#FFFFFF"/>
<text x="1526.6" y="414.0" font-size="10" fill="#2C2C2A">documentarSinConservarElTexto()</text>
<polyline points="1325.7,467.0 1367.7,467.0 1367.7,493.0 1334.7,493.0" fill="none" stroke="#5F5E5A" stroke-width="1.3"/>
<polygon points="1327.7000000000003,493 1334.7000000000003,489.6 1334.7000000000003,496.4" fill="#5F5E5A" stroke="#5F5E5A" stroke-width="1.2"/>
<rect x="1373.7" y="442.0" width="118.0" height="15.0" fill="#FFFFFF"/>
<text x="1377.7" y="454.0" font-size="10" fill="#2C2C2A">mantenerModoSeguro()</text>
<polyline points="1325.7,569.0 1367.7,569.0 1367.7,595.0 1334.7,595.0" fill="none" stroke="#5F5E5A" stroke-width="1.3"/>
<polygon points="1327.7000000000003,595 1334.7000000000003,591.6 1334.7000000000003,598.4" fill="#5F5E5A" stroke="#5F5E5A" stroke-width="1.2"/>
<rect x="1373.7" y="544.0" width="145.5" height="15.0" fill="#FFFFFF"/>
<text x="1377.7" y="556.0" font-size="10" fill="#2C2C2A">continuarSinDegradacion()</text>
<line x1="1325.7" y1="770.0" x2="881.2" y2="770.0" stroke="#5F5E5A" stroke-width="1.3"/>
<polygon points="883.1500000000001,770 890.1500000000001,766.6 890.1500000000001,773.4" fill="#5F5E5A" stroke="#5F5E5A" stroke-width="1.2"/>
<rect x="1011.4" y="745.0" width="184.0" height="15.0" fill="#FFFFFF"/>
<text x="1015.4" y="757.0" font-size="10" fill="#2C2C2A">presentarContencionYDerivacion()</text>
<polyline points="881.2,810.0 923.2,810.0 923.2,836.0 890.2,836.0" fill="none" stroke="#5F5E5A" stroke-width="1.3"/>
<polygon points="883.1500000000001,836 890.1500000000001,832.6 890.1500000000001,839.4" fill="#5F5E5A" stroke="#5F5E5A" stroke-width="1.2"/>
<rect x="929.2" y="785.0" width="178.5" height="15.0" fill="#FFFFFF"/>
<text x="933.2" y="797.0" font-size="10" fill="#2C2C2A">resolverTextoFijoDeContencion()</text>
<polyline points="881.2,912.0 923.2,912.0 923.2,938.0 890.2,938.0" fill="none" stroke="#5F5E5A" stroke-width="1.3"/>
<polygon points="883.1500000000001,938 890.1500000000001,934.6 890.1500000000001,941.4" fill="#5F5E5A" stroke="#5F5E5A" stroke-width="1.2"/>
<rect x="929.2" y="887.0" width="217.0" height="15.0" fill="#FFFFFF"/>
<text x="933.2" y="899.0" font-size="10" fill="#2C2C2A">presentarOrientacionMinimaInvariable()</text>
<polyline points="881.2,996.0 923.2,996.0 923.2,1022.0 890.2,1022.0" fill="none" stroke="#5F5E5A" stroke-width="1.3"/>
<polygon points="883.1500000000001,1022 890.1500000000001,1018.6 890.1500000000001,1025.4" fill="#5F5E5A" stroke="#5F5E5A" stroke-width="1.2"/>
<rect x="929.2" y="971.0" width="211.5" height="15.0" fill="#FFFFFF"/>
<text x="933.2" y="983.0" font-size="10" fill="#2C2C2A">mostrarContencionQueDeclaraSerUnaIA()</text>
<line x1="881.2" y1="1070.0" x2="2134.8" y2="1070.0" stroke="#5F5E5A" stroke-width="1.3"/>
<polygon points="2132.75,1070 2125.75,1066.6 2125.75,1073.4" fill="#5F5E5A" stroke="#5F5E5A" stroke-width="1.2"/>
<rect x="1413.2" y="1045.0" width="189.5" height="15.0" fill="#FFFFFF"/>
<text x="1417.2" y="1057.0" font-size="10" fill="#2C2C2A">obtenerAprovisionadosPorEntorno()</text>
<polyline points="881.2,1146.0 923.2,1146.0 923.2,1172.0 890.2,1172.0" fill="none" stroke="#5F5E5A" stroke-width="1.3"/>
<polygon points="883.1500000000001,1172 890.1500000000001,1168.6 890.1500000000001,1175.4" fill="#5F5E5A" stroke="#5F5E5A" stroke-width="1.2"/>
<rect x="929.2" y="1121.0" width="233.5" height="15.0" fill="#FFFFFF"/>
<text x="933.2" y="1133.0" font-size="10" fill="#2C2C2A">orientarAEmergenciasSinNumerosEmbebidos()</text>
<line x1="2134.8" y1="1230.0" x2="881.2" y2="1230.0" stroke="#8a8a8a" stroke-width="1.3" stroke-dasharray="6 4"/>
<polygon points="883.1500000000001,1230 890.1500000000001,1226.6 890.1500000000001,1233.4" fill="none" stroke="#8a8a8a" stroke-width="1.2"/>
<rect x="1435.2" y="1205.0" width="145.5" height="15.0" fill="#FFFFFF"/>
<text x="1439.2" y="1217.0" font-size="10" fill="#2C2C2A">referencias de derivacion</text>
<polyline points="881.2,1270.0 923.2,1270.0 923.2,1296.0 890.2,1296.0" fill="none" stroke="#5F5E5A" stroke-width="1.3"/>
<polygon points="883.1500000000001,1296 890.1500000000001,1292.6 890.1500000000001,1299.4" fill="#5F5E5A" stroke="#5F5E5A" stroke-width="1.2"/>
<rect x="929.2" y="1245.0" width="167.5" height="15.0" fill="#FFFFFF"/>
<text x="933.2" y="1257.0" font-size="10" fill="#2C2C2A">mostrarRecursosDeDerivacion()</text>
<line x1="1325.7" y1="1376.0" x2="1898.1" y2="1376.0" stroke="#5F5E5A" stroke-width="1.3"/>
<polygon points="1896.0500000000002,1376 1889.0500000000002,1372.6 1889.0500000000002,1379.4" fill="#5F5E5A" stroke="#5F5E5A" stroke-width="1.2"/>
<rect x="1522.6" y="1351.0" width="178.5" height="15.0" fill="#FFFFFF"/>
<text x="1526.6" y="1363.0" font-size="10" fill="#2C2C2A">marcarTurnoComoSafetyFallback()</text>
<line x1="1325.7" y1="1452.0" x2="2657.9" y2="1452.0" stroke="#5F5E5A" stroke-width="1.3"/>
<polygon points="2655.95,1452 2648.95,1448.6 2648.95,1455.4" fill="#5F5E5A" stroke="#5F5E5A" stroke-width="1.2"/>
<rect x="1888.8" y="1427.0" width="206.0" height="15.0" fill="#FFFFFF"/>
<text x="1892.8" y="1439.0" font-size="10" fill="#2C2C2A">consultarEstadoGlobalSinObedecerlo()</text>
<line x1="1325.7" y1="1500.0" x2="2360.8" y2="1500.0" stroke="#5F5E5A" stroke-width="1.3"/>
<polygon points="2358.75,1500 2351.75,1496.6 2351.75,1503.4" fill="#5F5E5A" stroke="#5F5E5A" stroke-width="1.2"/>
<rect x="1773.2" y="1475.0" width="140.0" height="15.0" fill="#FFFFFF"/>
<text x="1777.2" y="1487.0" font-size="10" fill="#2C2C2A">suspenderChatOrdinario()</text>
<line x1="2360.8" y1="1540.0" x2="487.5" y2="1540.0" stroke="#5F5E5A" stroke-width="1.3"/>
<polygon points="489.5,1540 496.5,1536.6 496.5,1543.4" fill="#5F5E5A" stroke="#5F5E5A" stroke-width="1.2"/>
<rect x="1321.1" y="1515.0" width="206.0" height="15.0" fill="#FFFFFF"/>
<text x="1325.1" y="1527.0" font-size="10" fill="#2C2C2A">impedirSeguirConversandoEnLaSesion()</text>
<line x1="77.3" y1="1616.0" x2="487.5" y2="1616.0" stroke="#5F5E5A" stroke-width="1.3"/>
<polygon points="485.5,1616 478.5,1612.6 478.5,1619.4" fill="#5F5E5A" stroke="#5F5E5A" stroke-width="1.2"/>
<rect x="220.7" y="1591.0" width="123.5" height="15.0" fill="#FFFFFF"/>
<text x="224.7" y="1603.0" font-size="10" fill="#2C2C2A">escribir otro mensaje</text>
<line x1="487.5" y1="1656.0" x2="881.2" y2="1656.0" stroke="#5F5E5A" stroke-width="1.3"/>
<polygon points="879.1500000000001,1656 872.1500000000001,1652.6 872.1500000000001,1659.4" fill="#5F5E5A" stroke="#5F5E5A" stroke-width="1.2"/>
<rect x="573.1" y="1631.0" width="222.5" height="15.0" fill="#FFFFFF"/>
<text x="577.1" y="1643.0" font-size="10" fill="#2C2C2A">mantenerContencionYDerivacionVisibles()</text>
<line x1="1325.7" y1="1831.0" x2="1643.2" y2="1831.0" stroke="#5F5E5A" stroke-width="1.3"/>
<polygon points="1641.2000000000003,1831 1634.2000000000003,1827.6 1634.2000000000003,1834.4" fill="#5F5E5A" stroke="#5F5E5A" stroke-width="1.2"/>
<rect x="1403.5" y="1806.0" width="162.0" height="15.0" fill="#FFFFFF"/>
<text x="1407.5" y="1818.0" font-size="10" fill="#2C2C2A">descartarContenidoDelTurno()</text>
<line x1="1325.7" y1="1871.0" x2="1898.1" y2="1871.0" stroke="#5F5E5A" stroke-width="1.3"/>
<polygon points="1896.0500000000002,1871 1889.0500000000002,1867.6 1889.0500000000002,1874.4" fill="#5F5E5A" stroke="#5F5E5A" stroke-width="1.2"/>
<rect x="1506.1" y="1846.0" width="211.5" height="15.0" fill="#FFFFFF"/>
<text x="1510.1" y="1858.0" font-size="10" fill="#2C2C2A">noContabilizarClasificacionDeRiesgo()</text>
<line x1="77.3" y1="1911.0" x2="881.2" y2="1911.0" stroke="#5F5E5A" stroke-width="1.3"/>
<polygon points="879.1500000000001,1911 872.1500000000001,1907.6 872.1500000000001,1914.4" fill="#5F5E5A" stroke="#5F5E5A" stroke-width="1.2"/>
<rect x="398.3" y="1886.0" width="162.0" height="15.0" fill="#FFFFFF"/>
<text x="402.3" y="1898.0" font-size="10" fill="#2C2C2A">abrir una conversacion nueva</text>
<line x1="881.2" y1="1951.0" x2="2360.8" y2="1951.0" stroke="#5F5E5A" stroke-width="1.3"/>
<polygon points="2358.75,1951 2351.75,1947.6 2351.75,1954.4" fill="#5F5E5A" stroke="#5F5E5A" stroke-width="1.2"/>
<rect x="1523.5" y="1926.0" width="195.0" height="15.0" fill="#FFFFFF"/>
<text x="1527.5" y="1938.0" font-size="10" fill="#2C2C2A">abrirNuevaSesionDeAcompanamiento()</text>
<line x1="2360.8" y1="1991.0" x2="487.5" y2="1991.0" stroke="#5F5E5A" stroke-width="1.3"/>
<polygon points="489.5,1991 496.5,1987.6 496.5,1994.4" fill="#5F5E5A" stroke="#5F5E5A" stroke-width="1.2"/>
<rect x="1351.4" y="1966.0" width="145.5" height="15.0" fill="#FFFFFF"/>
<text x="1355.4" y="1978.0" font-size="10" fill="#2C2C2A">reabrirElAcompanamiento()</text>
<line x1="487.5" y1="2067.0" x2="1325.7" y2="2067.0" stroke="#5F5E5A" stroke-width="1.3"/>
<polygon points="1323.7000000000003,2067 1316.7000000000003,2063.6 1316.7000000000003,2070.4" fill="#5F5E5A" stroke="#5F5E5A" stroke-width="1.2"/>
<rect x="795.4" y="2042.0" width="222.5" height="15.0" fill="#FFFFFF"/>
<text x="799.4" y="2054.0" font-size="10" fill="#2C2C2A">activar(veredicto de peligro explicito)</text>
<rect x="839.7" y="126.0" width="460.0" height="107.0" fill="#F1EFE8" stroke="#B4B2A9" stroke-width="1" rx="3"/>
<text x="847.7" y="144.0" font-size="9.5" fill="#2C2C2A">I-1 se realiza como una AUSENCIA, y es deliberado. En todo este diagrama</text>
<text x="847.7" y="157.0" font-size="9.5" fill="#2C2C2A">no existe ninguna frontera con el Proveedor LLM: ningun mensaje sale hacia el.</text>
<text x="847.7" y="170.0" font-size="9.5" fill="#2C2C2A">Por eso el turno marcado como peligro explicito nunca le llega. Un atajo hacia el</text>
<text x="847.7" y="183.0" font-size="9.5" fill="#2C2C2A">proveedor contradiria C-3 en el caso de uso mas critico.</text>
<text x="847.7" y="196.0" font-size="9.5" fill="#2C2C2A">SEG-01 v1.2: la configuracion se carga al inicializar y se retiene en memoria.</text>
<text x="847.7" y="209.0" font-size="9.5" fill="#2C2C2A">Esta ruta nunca hace una lectura remota: resolver el texto de contencion y los</text>
<text x="847.7" y="222.0" font-size="9.5" fill="#2C2C2A">RecursoDeAyuda es local al propio despliegue (ECU-07 §6, «limite del sistema»).</text>
<rect x="1351.7" y="615.0" width="460.0" height="81.0" fill="#F1EFE8" stroke="#B4B2A9" stroke-width="1" rx="3"/>
<text x="1359.7" y="633.0" font-size="9.5" fill="#2C2C2A">Paso 2 es una abstencion doble y observable: ni interpretacion clinica ni</text>
<text x="1359.7" y="646.0" font-size="9.5" fill="#2C2C2A">preguntas exploratorias (ECU-07 §11.1). No se parte en dos mensajes.</text>
<text x="1359.7" y="659.0" font-size="9.5" fill="#2C2C2A">I-4: la personalidad ordinaria queda suspendida (C-10).</text>
<text x="1359.7" y="672.0" font-size="9.5" fill="#2C2C2A">FE-01 no degrada nada porque ningun paso de esta cadena consulta al</text>
<text x="1359.7" y="685.0" font-size="9.5" fill="#2C2C2A">proveedor: RC-01 = 100 % se sostiene por construccion, no por un manejo de error.</text>
<rect x="839.7" y="1708.0" width="460.0" height="81.0" fill="#F1EFE8" stroke="#B4B2A9" stroke-width="1" rx="3"/>
<text x="847.7" y="1726.0" font-size="9.5" fill="#2C2C2A">El orden invierte la numeracion de ECU-07, y es deliberado. El texto numera</text>
<text x="847.7" y="1739.0" font-size="9.5" fill="#2C2C2A">«7 el Usuario abre mas tarde una Conversacion nueva» y «8 el Sistema descarta el</text>
<text x="847.7" y="1752.0" font-size="9.5" fill="#2C2C2A">contenido», pero el descarte resuelve el turno en curso y no puede esperar a una</text>
<text x="847.7" y="1765.0" font-size="9.5" fill="#2C2C2A">accion que el Usuario emprende «cuando lo decide». DR-07 ya lo modela asi:</text>
<text x="847.7" y="1778.0" font-size="9.5" fill="#2C2C2A">el paso 8 cuelga del bloqueo (paso 6) y el paso 7 es una rama que inicia el Usuario.</text>
<rect x="1553.2" y="2087.0" width="454.8" height="68.0" fill="#F1EFE8" stroke="#B4B2A9" stroke-width="1" rx="3"/>
<text x="1561.2" y="2105.0" font-size="9.5" fill="#2C2C2A">I-3 - lo que NO existe es la afirmacion. En todo el diagrama no hay ningun</text>
<text x="1561.2" y="2118.0" font-size="9.5" fill="#2C2C2A">mensaje que persista el contenido del turno, que puntue severidad, que acumule</text>
<text x="1561.2" y="2131.0" font-size="9.5" fill="#2C2C2A">estado entre sesiones (FA-03 vuelve al mismo punto de entrada, sin endurecer)</text>
<text x="1561.2" y="2144.0" font-size="9.5" fill="#2C2C2A">ni que exponga un registro individual al Administrador (PRIV-R7).</text>
<g fill="none" stroke="#2C2C2A" stroke-width="1.4"><circle cx="77.35" cy="46" r="9"/><line x1="77.35" y1="55" x2="77.35" y2="77"/><line x1="65.35" y1="64" x2="89.35" y2="64"/><line x1="77.35" y1="77" x2="67.35" y2="92"/><line x1="77.35" y1="77" x2="87.35" y2="92"/></g>
<text x="77.3" y="97.0" font-size="11" text-anchor="middle" fill="#2C2C2A">Usuario adulto</text>
<rect x="406.9" y="34.0" width="161.2" height="46.0" rx="4" fill="#E6F1FB" stroke="#185FA5" stroke-width="1"/>
<g fill="none" stroke="#185FA5" stroke-width="1.3"><line x1="413.925" y1="51.0" x2="413.925" y2="63.0"/><line x1="413.925" y1="57.0" x2="417.925" y2="57.0"/><circle cx="422.925" cy="57.0" r="5"/></g>
<text x="497.5" y="54.5" font-size="11" text-anchor="middle" fill="#0C447C">Chat con el acompanante</text>
<text x="497.5" y="67.5" font-size="11" text-anchor="middle" fill="#0C447C">(P-10)</text>
<rect x="800.6" y="34.0" width="161.2" height="46.0" rx="4" fill="#E6F1FB" stroke="#185FA5" stroke-width="1"/>
<g fill="none" stroke="#185FA5" stroke-width="1.3"><line x1="807.575" y1="51.0" x2="807.575" y2="63.0"/><line x1="807.575" y1="57.0" x2="811.575" y2="57.0"/><circle cx="816.575" cy="57.0" r="5"/></g>
<text x="891.2" y="54.5" font-size="11" text-anchor="middle" fill="#0C447C">Contencion y derivacion</text>
<text x="891.2" y="67.5" font-size="11" text-anchor="middle" fill="#0C447C">(P-12)</text>
<rect x="1251.2" y="34.0" width="149.1" height="33.0" rx="4" fill="#E1F5EE" stroke="#0F6E56" stroke-width="1"/>
<g fill="none" stroke="#0F6E56" stroke-width="1.3"><circle cx="1265.1750000000002" cy="50.5" r="5.5"/><polyline points="1263.6750000000002,43.0 1267.6750000000002,45.3 1263.3750000000002,47.7"/></g>
<text x="1335.7" y="54.5" font-size="11" text-anchor="middle" fill="#04342C">Fallback de seguridad</text>
<rect x="1595.2" y="34.0" width="96.0" height="33.0" rx="4" fill="#EEEDFE" stroke="#534AB7" stroke-width="1"/>
<g fill="none" stroke="#534AB7" stroke-width="1.3"><circle cx="1609.2000000000003" cy="49.0" r="5.5"/><line x1="1602.7000000000003" y1="56.5" x2="1615.7000000000003" y2="56.5"/></g>
<text x="1653.2" y="54.5" font-size="11" text-anchor="middle" fill="#26215C">Mensaje</text>
<rect x="1835.6" y="34.0" width="124.9" height="33.0" rx="4" fill="#EEEDFE" stroke="#534AB7" stroke-width="1"/>
<g fill="none" stroke="#534AB7" stroke-width="1.3"><circle cx="1849.6250000000002" cy="49.0" r="5.5"/><line x1="1843.1250000000002" y1="56.5" x2="1856.1250000000002" y2="56.5"/></g>
<text x="1908.1" y="54.5" font-size="11" text-anchor="middle" fill="#26215C">EventoDeSeguridad</text>
<rect x="2081.4" y="34.0" width="106.7" height="33.0" rx="4" fill="#EEEDFE" stroke="#534AB7" stroke-width="1"/>
<g fill="none" stroke="#534AB7" stroke-width="1.3"><circle cx="2095.4" cy="49.0" r="5.5"/><line x1="2088.9" y1="56.5" x2="2101.9" y2="56.5"/></g>
<text x="2144.8" y="54.5" font-size="11" text-anchor="middle" fill="#26215C">RecursoDeAyuda</text>
<rect x="2312.8" y="34.0" width="96.0" height="33.0" rx="4" fill="#EEEDFE" stroke="#534AB7" stroke-width="1"/>
<g fill="none" stroke="#534AB7" stroke-width="1.3"><circle cx="2326.75" cy="49.0" r="5.5"/><line x1="2320.25" y1="56.5" x2="2333.25" y2="56.5"/></g>
<text x="2370.8" y="54.5" font-size="11" text-anchor="middle" fill="#26215C">Conversacion</text>
<rect x="2574.3" y="34.0" width="167.2" height="33.0" rx="4" fill="#EEEDFE" stroke="#534AB7" stroke-width="1"/>
<g fill="none" stroke="#534AB7" stroke-width="1.3"><circle cx="2588.35" cy="49.0" r="5.5"/><line x1="2581.85" y1="56.5" x2="2594.85" y2="56.5"/></g>
<text x="2667.9" y="54.5" font-size="11" text-anchor="middle" fill="#26215C">DisponibilidadDelChatbot</text>
</svg>