<svg xmlns="http://www.w3.org/2000/svg" viewBox="0 0 2134 1914" width="2134" height="1914" role="img" aria-labelledby="t d" font-family="Segoe UI, Helvetica, Arial, sans-serif">
<title id="t">DS-12 - Secuencia de CU-12 «Revocar la personalizacion»</title>
<desc id="d">Diagrama de secuencia UML. 7 participantes, 17 mensajes.</desc>
<rect x="0" y="0" width="2134" height="1914" fill="#FFFFFF"/>
<text x="24" y="26" font-size="15" font-weight="600" fill="#2C2C2A">DS-12 - Secuencia de CU-12 «Revocar la personalizacion»</text>
<line x1="77.3" y1="103.0" x2="77.3" y2="1886.0" stroke="#B4B2A9" stroke-width="1" stroke-dasharray="4 4"/>
<line x1="444.1" y1="67.0" x2="444.1" y2="1886.0" stroke="#B4B2A9" stroke-width="1" stroke-dasharray="4 4"/>
<line x1="881.0" y1="80.0" x2="881.0" y2="1886.0" stroke="#B4B2A9" stroke-width="1" stroke-dasharray="4 4"/>
<line x1="1107.0" y1="67.0" x2="1107.0" y2="1886.0" stroke="#B4B2A9" stroke-width="1" stroke-dasharray="4 4"/>
<line x1="1424.2" y1="67.0" x2="1424.2" y2="1886.0" stroke="#B4B2A9" stroke-width="1" stroke-dasharray="4 4"/>
<line x1="1785.9" y1="67.0" x2="1785.9" y2="1886.0" stroke="#B4B2A9" stroke-width="1" stroke-dasharray="4 4"/>
<line x1="2061.9" y1="67.0" x2="2061.9" y2="1886.0" stroke="#B4B2A9" stroke-width="1" stroke-dasharray="4 4"/>
<rect x="406.1" y="301.0" width="513.0" height="66.0" fill="none" stroke="#993C1D" stroke-width="1" rx="3"/>
<polygon points="406.05000000000007,301 468.05000000000007,301 468.05000000000007,313 460.05000000000007,321 406.05000000000007,321" fill="#FAECE7" stroke="#993C1D" stroke-width="1"/>
<text x="415.05000000000007" y="315" font-size="10" font-weight="600" fill="#993C1D">break</text>
<text x="478.05000000000007" y="315" font-size="10" fill="#993C1D">[FE-01 la sesion expira]</text>
<rect x="406.1" y="385.0" width="76.0" height="92.0" fill="none" stroke="#993C1D" stroke-width="1" rx="3"/>
<polygon points="406.05000000000007,385 468.05000000000007,385 468.05000000000007,397 460.05000000000007,405 406.05000000000007,405" fill="#FAECE7" stroke="#993C1D" stroke-width="1"/>
<text x="415.05000000000007" y="399" font-size="10" font-weight="600" fill="#993C1D">break</text>
<text x="478.05000000000007" y="399" font-size="10" fill="#993C1D">[FE-02 el]</text>
<rect x="406.1" y="535.0" width="76.0" height="92.0" fill="none" stroke="#993C1D" stroke-width="1" rx="3"/>
<polygon points="406.05000000000007,535 468.05000000000007,535 468.05000000000007,547 460.05000000000007,555 406.05000000000007,555" fill="#FAECE7" stroke="#993C1D" stroke-width="1"/>
<text x="415.05000000000007" y="549" font-size="10" font-weight="600" fill="#993C1D">break</text>
<text x="478.05000000000007" y="549" font-size="10" fill="#993C1D">[FA-01 la]</text>
<rect x="39.3" y="645.0" width="442.7" height="344.0" fill="none" stroke="#5F5E5A" stroke-width="1" rx="3"/>
<polygon points="39.349999999999994,645 101.35,645 101.35,657 93.35,665 39.349999999999994,665" fill="#F1EFE8" stroke="#5F5E5A" stroke-width="1"/>
<text x="48.349999999999994" y="659" font-size="10" font-weight="600" fill="#5F5E5A">loop</text>
<text x="111.35" y="659" font-size="10" fill="#5F5E5A">[hasta que llegue una confirmacion valida, o el Usuario cancele]</text>
<rect x="396.1" y="787.0" width="96.0" height="194.0" fill="none" stroke="#993C1D" stroke-width="1" rx="3"/>
<polygon points="396.05000000000007,787 458.05000000000007,787 458.05000000000007,799 450.05000000000007,807 396.05000000000007,807" fill="#FAECE7" stroke="#993C1D" stroke-width="1"/>
<text x="405.05000000000007" y="801" font-size="10" font-weight="600" fill="#993C1D">alt</text>
<text x="468.05000000000007" y="801" font-size="10" fill="#993C1D">[FA-03]</text>
<line x1="396.1" y1="881.0" x2="492.1" y2="881.0" stroke="#993C1D" stroke-width="1" stroke-dasharray="5 4"/>
<text x="406.1" y="894.0" font-size="10" fill="#993C1D">[FE-03]</text>
<line x1="396.1" y1="965.0" x2="492.1" y2="965.0" stroke="#993C1D" stroke-width="1" stroke-dasharray="5 4"/>
<text x="406.1" y="978.0" font-size="10" fill="#993C1D">[la]</text>
<rect x="406.1" y="1581.0" width="1417.9" height="66.0" fill="none" stroke="#993C1D" stroke-width="1" rx="3"/>
<polygon points="406.05000000000007,1581 468.05000000000007,1581 468.05000000000007,1593 460.05000000000007,1601 406.05000000000007,1601" fill="#FAECE7" stroke="#993C1D" stroke-width="1"/>
<text x="415.05000000000007" y="1595" font-size="10" font-weight="600" fill="#993C1D">opt</text>
<text x="478.05000000000007" y="1595" font-size="10" fill="#993C1D">[FA-02 la capsula solo tiene character]</text>
<line x1="57.3" y1="237.0" x2="2081.9" y2="237.0" stroke="#8a8a8a" stroke-width="1"/>
<rect x="949.7" y="226.0" width="239.8" height="22" rx="3" fill="#FFFFFF" stroke="#B4B2A9" stroke-width="1"/>
<text x="1069.6" y="241.0" font-size="11" font-weight="600" text-anchor="middle" fill="#5F5E5A">Pasos 1 y 2 - Alcance y confirmacion</text>
<line x1="57.3" y1="1305.0" x2="2081.9" y2="1305.0" stroke="#8a8a8a" stroke-width="1"/>
<rect x="904.4" y="1294.0" width="330.6" height="22" rx="3" fill="#FFFFFF" stroke="#B4B2A9" stroke-width="1"/>
<text x="1069.6" y="1309.0" font-size="11" font-weight="600" text-anchor="middle" fill="#5F5E5A">Paso 3 - Revocacion y descarte de los autorreportes</text>
<line x1="57.3" y1="1673.0" x2="2081.9" y2="1673.0" stroke="#8a8a8a" stroke-width="1"/>
<rect x="898.3" y="1662.0" width="342.7" height="22" rx="3" fill="#FFFFFF" stroke="#B4B2A9" stroke-width="1"/>
<text x="1069.6" y="1677.0" font-size="11" font-weight="600" text-anchor="middle" fill="#5F5E5A">Paso 4 - Confirmacion de que el chat sigue disponible</text>
<line x1="77.3" y1="281.0" x2="444.1" y2="281.0" stroke="#5F5E5A" stroke-width="1.3"/>
<polygon points="442.05000000000007,281 435.05000000000007,277.6 435.05000000000007,284.4" fill="#5F5E5A" stroke="#5F5E5A" stroke-width="1.2"/>
<rect x="166.0" y="256.0" width="189.5" height="15.0" fill="#FFFFFF"/>
<text x="170.0" y="268.0" font-size="10" fill="#2C2C2A">elegir revocar la personalizacion</text>
<line x1="444.1" y1="357.0" x2="881.0" y2="357.0" stroke="#5F5E5A" stroke-width="1.3"/>
<polygon points="879.0000000000001,357 872.0000000000001,353.6 872.0000000000001,360.4" fill="#5F5E5A" stroke="#5F5E5A" stroke-width="1.2"/>
<rect x="584.3" y="332.0" width="156.5" height="15.0" fill="#FFFFFF"/>
<text x="588.3" y="344.0" font-size="10" fill="#2C2C2A">solicitarReingresoPorCU03()</text>
<polyline points="444.1,441.0 486.1,441.0 486.1,467.0 453.1,467.0" fill="none" stroke="#5F5E5A" stroke-width="1.3"/>
<polygon points="446.05000000000007,467 453.05000000000007,463.6 453.05000000000007,470.4" fill="#5F5E5A" stroke="#5F5E5A" stroke-width="1.2"/>
<rect x="492.1" y="416.0" width="167.5" height="15.0" fill="#FFFFFF"/>
<text x="496.1" y="428.0" font-size="10" fill="#2C2C2A">denegarPorPermisoSinCambios()</text>
<line x1="444.1" y1="515.0" x2="1785.9" y2="515.0" stroke="#5F5E5A" stroke-width="1.3"/>
<polygon points="1783.9499999999998,515 1776.9499999999998,511.6 1776.9499999999998,518.4" fill="#5F5E5A" stroke="#5F5E5A" stroke-width="1.2"/>
<rect x="1023.0" y="490.0" width="184.0" height="15.0" fill="#FFFFFF"/>
<text x="1027.0" y="502.0" font-size="10" fill="#2C2C2A">dejaraDeOrientarLaConversacion()</text>
<polyline points="444.1,591.0 486.1,591.0 486.1,617.0 453.1,617.0" fill="none" stroke="#5F5E5A" stroke-width="1.3"/>
<polygon points="446.05000000000007,617 453.05000000000007,613.6 453.05000000000007,620.4" fill="#5F5E5A" stroke="#5F5E5A" stroke-width="1.2"/>
<rect x="492.1" y="566.0" width="266.5" height="15.0" fill="#FFFFFF"/>
<text x="496.1" y="578.0" font-size="10" fill="#2C2C2A">informarQueYaEstabaRevocadaSinRepetirElCambio()</text>
<polyline points="444.1,701.0 486.1,701.0 486.1,727.0 453.1,727.0" fill="none" stroke="#5F5E5A" stroke-width="1.3"/>
<polygon points="446.05000000000007,727 453.05000000000007,723.6 453.05000000000007,730.4" fill="#5F5E5A" stroke="#5F5E5A" stroke-width="1.2"/>
<rect x="492.1" y="676.0" width="206.0" height="15.0" fill="#FFFFFF"/>
<text x="496.1" y="688.0" font-size="10" fill="#2C2C2A">declararQueElChatSeguiraDisponible()</text>
<line x1="77.3" y1="767.0" x2="444.1" y2="767.0" stroke="#5F5E5A" stroke-width="1.3"/>
<polygon points="442.05000000000007,767 435.05000000000007,763.6 435.05000000000007,770.4" fill="#5F5E5A" stroke="#5F5E5A" stroke-width="1.2"/>
<rect x="193.5" y="742.0" width="134.5" height="15.0" fill="#FFFFFF"/>
<text x="197.5" y="754.0" font-size="10" fill="#2C2C2A">confirmar la revocacion</text>
<polyline points="444.1,843.0 486.1,843.0 486.1,869.0 453.1,869.0" fill="none" stroke="#5F5E5A" stroke-width="1.3"/>
<polygon points="446.05000000000007,869 453.05000000000007,865.6 453.05000000000007,872.4" fill="#5F5E5A" stroke="#5F5E5A" stroke-width="1.2"/>
<rect x="492.1" y="818.0" width="217.0" height="15.0" fill="#FFFFFF"/>
<text x="496.1" y="830.0" font-size="10" fill="#2C2C2A">cancelarSinModificarElConsentimiento()</text>
<polyline points="444.1,927.0 486.1,927.0 486.1,953.0 453.1,953.0" fill="none" stroke="#5F5E5A" stroke-width="1.3"/>
<polygon points="446.05000000000007,953 453.05000000000007,949.6 453.05000000000007,956.4" fill="#5F5E5A" stroke="#5F5E5A" stroke-width="1.2"/>
<rect x="492.1" y="902.0" width="261.0" height="15.0" fill="#FFFFFF"/>
<text x="496.1" y="914.0" font-size="10" fill="#2C2C2A">mostrarPeticionMalFormadaYPermitirReintentar()</text>
<line x1="444.1" y1="1349.0" x2="1107.0" y2="1349.0" stroke="#5F5E5A" stroke-width="1.3"/>
<polygon points="1105.0,1349 1098.0,1345.6 1098.0,1352.4" fill="#5F5E5A" stroke="#5F5E5A" stroke-width="1.2"/>
<rect x="669.8" y="1324.0" width="211.5" height="15.0" fill="#FFFFFF"/>
<text x="673.8" y="1336.0" font-size="10" fill="#2C2C2A">identificarTitularDelConsentimiento()</text>
<line x1="1107.0" y1="1389.0" x2="1424.2" y2="1389.0" stroke="#5F5E5A" stroke-width="1.3"/>
<polygon points="1422.1999999999998,1389 1415.1999999999998,1385.6 1415.1999999999998,1392.4" fill="#5F5E5A" stroke="#5F5E5A" stroke-width="1.2"/>
<rect x="1165.3" y="1364.0" width="200.5" height="15.0" fill="#FFFFFF"/>
<text x="1169.3" y="1376.0" font-size="10" fill="#2C2C2A">revocarCapaDePersonalizacion(fecha)</text>
<polyline points="1424.2,1429.0 1466.2,1429.0 1466.2,1455.0 1433.2,1455.0" fill="none" stroke="#5F5E5A" stroke-width="1.3"/>
<polygon points="1426.1999999999998,1455 1433.1999999999998,1451.6 1433.1999999999998,1458.4" fill="#5F5E5A" stroke="#5F5E5A" stroke-width="1.2"/>
<rect x="1472.2" y="1404.0" width="167.5" height="15.0" fill="#FFFFFF"/>
<text x="1476.2" y="1416.0" font-size="10" fill="#2C2C2A">conservarLaCapaBaseOtorgada()</text>
<line x1="1424.2" y1="1495.0" x2="1785.9" y2="1495.0" stroke="#5F5E5A" stroke-width="1.3"/>
<polygon points="1783.9499999999998,1495 1776.9499999999998,1491.6 1776.9499999999998,1498.4" fill="#5F5E5A" stroke="#5F5E5A" stroke-width="1.2"/>
<rect x="1485.6" y="1470.0" width="239.0" height="15.0" fill="#FFFFFF"/>
<text x="1489.6" y="1482.0" font-size="10" fill="#2C2C2A">marcarLosCuatroAutorreportesParaDescarte()</text>
<polyline points="1785.9,1535.0 1827.9,1535.0 1827.9,1561.0 1794.9,1561.0" fill="none" stroke="#5F5E5A" stroke-width="1.3"/>
<polygon points="1787.9499999999998,1561 1794.9499999999998,1557.6 1794.9499999999998,1564.4" fill="#5F5E5A" stroke="#5F5E5A" stroke-width="1.2"/>
<rect x="1833.9" y="1510.0" width="118.0" height="15.0" fill="#FFFFFF"/>
<text x="1837.9" y="1522.0" font-size="10" fill="#2C2C2A">conservarCharacter()</text>
<line x1="1785.9" y1="1637.0" x2="444.1" y2="1637.0" stroke="#8a8a8a" stroke-width="1.3" stroke-dasharray="6 4"/>
<polygon points="446.05000000000007,1637 453.05000000000007,1633.6 453.05000000000007,1640.4" fill="none" stroke="#8a8a8a" stroke-width="1.2"/>
<rect x="951.5" y="1612.0" width="327.0" height="15.0" fill="#FFFFFF"/>
<text x="955.5" y="1624.0" font-size="10" fill="#2C2C2A">efecto observable nulo, no habia nada que dejara de usarse</text>
<line x1="444.1" y1="1717.0" x2="2061.9" y2="1717.0" stroke="#5F5E5A" stroke-width="1.3"/>
<polygon points="2059.95,1717 2052.95,1713.6 2052.95,1720.4" fill="#5F5E5A" stroke="#5F5E5A" stroke-width="1.2"/>
<rect x="1089.5" y="1692.0" width="327.0" height="15.0" fill="#FFFFFF"/>
<text x="1093.5" y="1704.0" font-size="10" fill="#2C2C2A">desdeElTurnoSiguienteLosAutorreportesNoViajanAlProveedor()</text>
<polyline points="444.1,1757.0 486.1,1757.0 486.1,1783.0 453.1,1783.0" fill="none" stroke="#5F5E5A" stroke-width="1.3"/>
<polygon points="446.05000000000007,1783 453.05000000000007,1779.6 453.05000000000007,1786.4" fill="#5F5E5A" stroke="#5F5E5A" stroke-width="1.2"/>
<rect x="492.1" y="1732.0" width="206.0" height="15.0" fill="#FFFFFF"/>
<text x="496.1" y="1744.0" font-size="10" fill="#2C2C2A">confirmarQuePuedeSeguirConversando()</text>
<rect x="310.1" y="126.0" width="1817.9" height="81.0" fill="#F1EFE8" stroke="#B4B2A9" stroke-width="1" rx="3"/>
<text x="318.1" y="144.0" font-size="9.5" fill="#2C2C2A">Invariante, y es lo esencial de este caso de uso: el Usuario SIGUE PUDIENDO</text>
<text x="318.1" y="157.0" font-size="9.5" fill="#2C2C2A">CONVERSAR. Revocar la personalizacion no es punitivo (RN-08). La capa base</text>
<text x="318.1" y="170.0" font-size="9.5" fill="#2C2C2A">permanece otorgada; lo unico que cesa es que los cuatro autorreportes orienten la</text>
<text x="318.1" y="183.0" font-size="9.5" fill="#2C2C2A">conversacion. `character` permanece, porque pertenece a la capa BASE (RN-01.6).</text>
<text x="318.1" y="196.0" font-size="9.5" fill="#2C2C2A">Contraste con CU-11 (DS-11), que borra la capsula entera: PER-T7.</text>
<rect x="6.0" y="999.0" width="566.7" height="276.0" fill="#F1EFE8" stroke="#B4B2A9" stroke-width="1" rx="3"/>
<text x="14.0" y="1017.0" font-size="9.5" fill="#2C2C2A">Por que `loop` + `alt`, y no `break` ni `opt` (`SVI-01` del `CDR-01 v1.5`, `SD-43`).</text>
<text x="14.0" y="1030.0" font-size="9.5" fill="#2C2C2A">Esta rama se resolvio mal tres veces, y cada intento fallo por una razon distinta:</text>
<text x="14.0" y="1043.0" font-size="9.5" fill="#2C2C2A">· `break` (original): abandona el fragmento envolvente, asi que construia un</text>
<text x="14.0" y="1056.0" font-size="9.5" fill="#2C2C2A">callejon sin salida donde `ECU-12` pide volver.</text>
<text x="14.0" y="1069.0" font-size="9.5" fill="#2C2C2A">· `opt` (`SD-39`): solo ejecuta-o-salta su cuerpo; al cerrarse caia al flujo de</text>
<text x="14.0" y="1082.0" font-size="9.5" fill="#2C2C2A">exito, de modo que cancelar la revocacion seguia revocando.</text>
<text x="14.0" y="1095.0" font-size="9.5" fill="#2C2C2A">· `break` otra vez (`SD-41`): se restauro afirmando que `ECU-12` decia «Termina».</text>
<text x="14.0" y="1108.0" font-size="9.5" fill="#2C2C2A">Es falso: `FA-03` dice «Cancela y vuelve al paso 1» y `FE-03` dice</text>
<text x="14.0" y="1121.0" font-size="9.5" fill="#2C2C2A">«Vuelve al paso 2». Lo cazo la segunda verificacion independiente.</text>
<text x="14.0" y="1134.0" font-size="9.5" fill="#2C2C2A">Hacen falta las dos piezas: el `alt` hace mutuamente excluyentes el desenlace de</text>
<text x="14.0" y="1147.0" font-size="9.5" fill="#2C2C2A">error y el sufijo de exito; el `loop` modela el ciclo de reintento.</text>
<text x="14.0" y="1160.0" font-size="9.5" fill="#2C2C2A">El punto exacto de reentrada no lo dibuja este diagrama (`SD-44`): es</text>
<text x="14.0" y="1173.0" font-size="9.5" fill="#2C2C2A">normativo en `ECU-12 FA-03/FE-03` y verificable en `CP-1305`/`CP-1306`.</text>
<text x="14.0" y="1186.0" font-size="9.5" fill="#2C2C2A">Aproximacion declarada. `FA-03` vuelve al paso 1 y `FE-03` al paso 2:</text>
<text x="14.0" y="1199.0" font-size="9.5" fill="#2C2C2A">dos puntos de retorno distintos. El `loop` reentra por el paso 2, que es el ciclo de</text>
<text x="14.0" y="1212.0" font-size="9.5" fill="#2C2C2A">confirmacion. Se prefirio a un anidamiento de dos bucles por legibilidad, y se declara</text>
<text x="14.0" y="1225.0" font-size="9.5" fill="#2C2C2A">aqui para que sea discutible en vez de invisible.</text>
<text x="14.0" y="1238.0" font-size="9.5" fill="#2C2C2A">Y por que el `loop` NO envuelve a `FE-01`, `FE-02` ni `FA-01`: esos tres si dicen</text>
<text x="14.0" y="1251.0" font-size="9.5" fill="#2C2C2A">«Termina»/«Finaliza», y un `break` dentro de un `loop` saldria del bucle y seguiria</text>
<text x="14.0" y="1264.0" font-size="9.5" fill="#2C2C2A">ejecutando lo que viene despues. Quedan fuera a proposito, para conservar su semantica.</text>
<rect x="1334.2" y="1795.0" width="561.8" height="81.0" fill="#F1EFE8" stroke="#B4B2A9" stroke-width="1" rx="3"/>
<text x="1342.2" y="1813.0" font-size="9.5" fill="#2C2C2A">PRIV-R3: los autorreportes quedan marcados para descarte, no borrados en</text>
<text x="1342.2" y="1826.0" font-size="9.5" fill="#2C2C2A">el acto. El diagrama lo dice con ese verbo y no con «suprimir», porque el momento del</text>
<text x="1342.2" y="1839.0" font-size="9.5" fill="#2C2C2A">descarte fisico es diseno de retencion y su sitio es `ARQ-01`.</text>
<text x="1342.2" y="1852.0" font-size="9.5" fill="#2C2C2A">Lo que NO existe aqui es la afirmacion: ningun mensaje toca la capa base, y</text>
<text x="1342.2" y="1865.0" font-size="9.5" fill="#2C2C2A">ninguno borra `character`. Por eso el chat sigue disponible.</text>
<g fill="none" stroke="#2C2C2A" stroke-width="1.4"><circle cx="77.35" cy="46" r="9"/><line x1="77.35" y1="55" x2="77.35" y2="77"/><line x1="65.35" y1="64" x2="89.35" y2="64"/><line x1="77.35" y1="77" x2="67.35" y2="92"/><line x1="77.35" y1="77" x2="87.35" y2="92"/></g>
<text x="77.3" y="97.0" font-size="11" text-anchor="middle" fill="#2C2C2A">Usuario adulto</text>
<rect x="360.5" y="34.0" width="167.2" height="33.0" rx="4" fill="#E6F1FB" stroke="#185FA5" stroke-width="1"/>
<g fill="none" stroke="#185FA5" stroke-width="1.3"><line x1="367.45000000000005" y1="44.5" x2="367.45000000000005" y2="56.5"/><line x1="367.45000000000005" y1="50.5" x2="371.45000000000005" y2="50.5"/><circle cx="376.45000000000005" cy="50.5" r="5"/></g>
<text x="454.1" y="54.5" font-size="11" text-anchor="middle" fill="#0C447C">Gestion de cuenta (P-13)</text>
<rect x="812.5" y="34.0" width="136.9" height="46.0" rx="4" fill="#E6F1FB" stroke="#185FA5" stroke-width="1"/>
<g fill="none" stroke="#185FA5" stroke-width="1.3"><line x1="819.5250000000001" y1="51.0" x2="819.5250000000001" y2="63.0"/><line x1="819.5250000000001" y1="57.0" x2="823.5250000000001" y2="57.0"/><circle cx="828.5250000000001" cy="57.0" r="5"/></g>
<text x="891.0" y="54.5" font-size="11" text-anchor="middle" fill="#0C447C">Inicio de sesion de</text>
<text x="891.0" y="67.5" font-size="11" text-anchor="middle" fill="#0C447C">usuario (P-03)</text>
<rect x="1059.0" y="34.0" width="96.0" height="33.0" rx="4" fill="#EEEDFE" stroke="#534AB7" stroke-width="1"/>
<g fill="none" stroke="#534AB7" stroke-width="1.3"><circle cx="1073.0" cy="49.0" r="5.5"/><line x1="1066.5" y1="56.5" x2="1079.5" y2="56.5"/></g>
<text x="1117.0" y="54.5" font-size="11" text-anchor="middle" fill="#26215C">Usuario</text>
<rect x="1370.8" y="34.0" width="106.7" height="33.0" rx="4" fill="#EEEDFE" stroke="#534AB7" stroke-width="1"/>
<g fill="none" stroke="#534AB7" stroke-width="1.3"><circle cx="1384.85" cy="49.0" r="5.5"/><line x1="1378.35" y1="56.5" x2="1391.35" y2="56.5"/></g>
<text x="1434.2" y="54.5" font-size="11" text-anchor="middle" fill="#26215C">Consentimiento</text>
<rect x="1729.6" y="34.0" width="112.8" height="33.0" rx="4" fill="#EEEDFE" stroke="#534AB7" stroke-width="1"/>
<g fill="none" stroke="#534AB7" stroke-width="1.3"><circle cx="1743.5749999999998" cy="49.0" r="5.5"/><line x1="1737.0749999999998" y1="56.5" x2="1750.0749999999998" y2="56.5"/></g>
<text x="1795.9" y="54.5" font-size="11" text-anchor="middle" fill="#26215C">CapsulaDePerfil</text>
<rect x="2013.9" y="34.0" width="96.0" height="33.0" rx="4" fill="#EEEDFE" stroke="#534AB7" stroke-width="1"/>
<g fill="none" stroke="#534AB7" stroke-width="1.3"><circle cx="2027.9499999999998" cy="49.0" r="5.5"/><line x1="2021.4499999999998" y1="56.5" x2="2034.4499999999998" y2="56.5"/></g>
<text x="2071.9" y="54.5" font-size="11" text-anchor="middle" fill="#26215C">Conversacion</text>
</svg>