<svg xmlns="http://www.w3.org/2000/svg" width="1000" height="882" viewBox="0 0 1000 882" role="img" font-family="Segoe UI, Helvetica, Arial, sans-serif">
<title>DR-04 — Analisis de robustez de CU-04 «Gestionar cuenta y datos personales»</title>
<desc>Diagrama de robustez ICONIX de Analisis de robustez de CU-04 «Gestionar cuenta y datos personales». 1 actor(es), 5 objeto(s) tipo Borde, 11 Controlador(es) y 4 Entidad(es), en cuatro carriles verticales. Los objetos en terracota participan solo en cursos alternativos o de excepcion; la entidad con borde punteado es un descubrimiento de robustez ausente del modelo de dominio MD-01. Vista derivada: la fuente de verdad es el archivo .puml.</desc>

<rect x="0" y="0" width="1000" height="882" fill="#FFFFFF"/>

<text x="24" y="26" font-size="14" font-weight="500" fill="#2C2C2A">DR-04 · Analisis de robustez de CU-04 «Gestionar cuenta y datos personales»</text>
<g font-size="11" font-weight="500" fill="#5F5E5A" text-anchor="middle">
<text x="72" y="56">Actor</text>
<text x="248" y="56">Objeto tipo Borde</text>
<text x="562" y="56">Controlador</text>
<text x="882" y="56">Entidad</text>
</g>
<line x1="24" y1="64" x2="965" y2="64" stroke="#B4B2A9" stroke-width="1"/>

<g fill="none" stroke="#8a8a8a" stroke-width="1">
<polyline points="84,95 124,95 124,90 150,90"/>
<polyline points="84,101 131,101 131,155 150,155"/>
<polyline points="345,85 352,85 352,89 425,89"/>
<polyline points="700,98 708,98 708,148 700,148"/>
<polyline points="345,96 364,96 364,166 425,166"/>
<polyline points="345,101 376,101 376,210 425,210"/>
<polyline points="345,163 388,163 388,223 425,223"/>
<polyline points="345,172 400,172 400,285 425,285"/>
<polyline points="700,270 744,270 744,98 800,98"/>
<polyline points="700,278 752,278 752,140 800,140"/>
<polyline points="700,293 760,293 760,194 800,194"/>
<polyline points="700,300 768,300 768,252 800,252"/>
<polyline points="700,308 715,308 715,364 700,364"/>
<polyline points="345,238 352,238 352,346 425,346"/>
<polyline points="345,106 364,106 364,404 425,404"/>
<polyline points="700,414 776,414 776,150 800,150"/>
<polyline points="700,423 722,423 722,471 700,471" stroke="#993C1D" stroke-dasharray="5 3"/>
<polyline points="345,304 376,304 376,458 425,458" stroke="#993C1D" stroke-dasharray="5 3"/>
<polyline points="345,111 388,111 388,504 425,504"/>
<polyline points="700,527 784,527 784,207 800,207"/>
<polyline points="700,519 744,519 744,159 800,159"/>
<polyline points="345,116 400,116 400,512 425,512"/>
<polyline points="345,181 352,181 352,573 425,573"/>
<polyline points="345,122 364,122 364,560 425,560"/>
<polyline points="700,108 729,108 729,616 700,616"/>
<polyline points="345,370 376,370 376,634 425,634" stroke="#993C1D" stroke-dasharray="5 3"/>
<polyline points="700,236 708,236 708,693 700,693"/>
<polyline points="345,189 388,189 388,684 425,684"/>
<polyline points="345,127 400,127 400,674 425,674"/>
</g>

<g fill="none" stroke="#2C2C2A" stroke-width="1.4"><circle cx="72.0" cy="92" r="9"/><line x1="72.0" y1="101" x2="72.0" y2="123"/><line x1="60.0" y1="110" x2="84.0" y2="110"/><line x1="72.0" y1="123" x2="62.0" y2="138"/><line x1="72.0" y1="123" x2="82.0" y2="138"/></g>
<g font-size="11" text-anchor="middle" fill="#2C2C2A">
<text x="72" y="154">Usuario adulto</text>
</g>
<rect x="150" y="80" width="195" height="52" rx="4" fill="#E6F1FB" stroke="#185FA5"/>
<g fill="none" stroke="#185FA5" stroke-width="1.3"><line x1="160" y1="100.0" x2="160" y2="112.0"/><line x1="160" y1="106.0" x2="164" y2="106.0"/><circle cx="169" cy="106.0" r="5"/></g>
<g font-size="11" fill="#0C447C">
<text x="182" y="102">Gestion de cuenta y datos</text>
<text x="182" y="117">(P-13)</text>
</g>
<rect x="150" y="146" width="195" height="52" rx="4" fill="#E6F1FB" stroke="#185FA5"/>
<g fill="none" stroke="#185FA5" stroke-width="1.3"><line x1="160" y1="166.0" x2="160" y2="178.0"/><line x1="160" y1="172.0" x2="164" y2="172.0"/><circle cx="169" cy="172.0" r="5"/></g>
<g font-size="11" fill="#0C447C">
<text x="182" y="168">Dialogo de confirmacion de</text>
<text x="182" y="183">eliminacion</text>
</g>
<rect x="150" y="212" width="195" height="52" rx="4" fill="#E6F1FB" stroke="#185FA5"/>
<g fill="none" stroke="#185FA5" stroke-width="1.3"><line x1="160" y1="232.0" x2="160" y2="244.0"/><line x1="160" y1="238.0" x2="164" y2="238.0"/><circle cx="169" cy="238.0" r="5"/></g>
<g font-size="11" fill="#0C447C">
<text x="182" y="234">Presentacion / landing</text>
<text x="182" y="249">(P-01)</text>
</g>
<rect x="150" y="278" width="195" height="52" rx="4" fill="#FAECE7" stroke="#993C1D"/>
<g fill="none" stroke="#993C1D" stroke-width="1.3"><line x1="160" y1="298.0" x2="160" y2="310.0"/><line x1="160" y1="304.0" x2="164" y2="304.0"/><circle cx="169" cy="304.0" r="5"/></g>
<g font-size="11" fill="#4A1B0C">
<text x="182" y="300">Onboarding -</text>
<text x="182" y="315">caracterizacion (P-08)</text>
</g>
<rect x="150" y="344" width="195" height="52" rx="4" fill="#FAECE7" stroke="#993C1D"/>
<g fill="none" stroke="#993C1D" stroke-width="1.3"><line x1="160" y1="364.0" x2="160" y2="376.0"/><line x1="160" y1="370.0" x2="164" y2="370.0"/><circle cx="169" cy="370.0" r="5"/></g>
<g font-size="11" fill="#4A1B0C">
<text x="182" y="366">Inicio de sesion de</text>
<text x="182" y="381">usuario (P-03)</text>
</g>
<rect x="425" y="80" width="275" height="37" rx="4" fill="#E1F5EE" stroke="#0F6E56"/>
<g fill="none" stroke="#0F6E56" stroke-width="1.3"><circle cx="442" cy="98.5" r="5.5"/><polyline points="440.5,91.0 444.5,93.3 440.2,95.7"/></g>
<g font-size="11" fill="#04342C">
<text x="457" y="102">Verificar la sesion y el rol de usuario</text>
</g>
<rect x="425" y="131" width="275" height="52" rx="4" fill="#E1F5EE" stroke="#0F6E56"/>
<g fill="none" stroke="#0F6E56" stroke-width="1.3"><circle cx="442" cy="157.0" r="5.5"/><polyline points="440.5,149.5 444.5,151.8 440.2,154.2"/></g>
<g font-size="11" fill="#04342C">
<text x="457" y="153">Mostrar las opciones de gestion de</text>
<text x="457" y="168">cuenta</text>
</g>
<rect x="425" y="197" width="275" height="52" rx="4" fill="#E1F5EE" stroke="#0F6E56"/>
<g fill="none" stroke="#0F6E56" stroke-width="1.3"><circle cx="442" cy="223.0" r="5.5"/><polyline points="440.5,215.5 444.5,217.8 440.2,220.2"/></g>
<g font-size="11" fill="#04342C">
<text x="457" y="219">Solicitar la confirmacion de</text>
<text x="457" y="234">eliminacion</text>
</g>
<rect x="425" y="263" width="275" height="52" rx="4" fill="#E1F5EE" stroke="#0F6E56"/>
<g fill="none" stroke="#0F6E56" stroke-width="1.3"><circle cx="442" cy="289.0" r="5.5"/><polyline points="440.5,281.5 444.5,283.8 440.2,286.2"/></g>
<g font-size="11" fill="#04342C">
<text x="457" y="285">Eliminar la cuenta y ejecutar el</text>
<text x="457" y="300">borrado en cascada</text>
</g>
<rect x="425" y="329" width="275" height="52" rx="4" fill="#E1F5EE" stroke="#0F6E56"/>
<g fill="none" stroke="#0F6E56" stroke-width="1.3"><circle cx="442" cy="355.0" r="5.5"/><polyline points="440.5,347.5 444.5,349.8 440.2,352.2"/></g>
<g font-size="11" fill="#04342C">
<text x="457" y="351">Cerrar la sesion y confirmar la</text>
<text x="457" y="366">supresion</text>
</g>
<rect x="425" y="395" width="275" height="37" rx="4" fill="#FAECE7" stroke="#993C1D"/>
<g fill="none" stroke="#993C1D" stroke-width="1.3"><circle cx="442" cy="413.5" r="5.5"/><polyline points="440.5,406.0 444.5,408.3 440.2,410.7"/></g>
<g font-size="11" fill="#4A1B0C">
<text x="457" y="417">Reiniciar la caracterizacion</text>
</g>
<rect x="425" y="446" width="275" height="37" rx="4" fill="#FAECE7" stroke="#993C1D"/>
<g fill="none" stroke="#993C1D" stroke-width="1.3"><circle cx="442" cy="464.5" r="5.5"/><polyline points="440.5,457.0 444.5,459.3 440.2,461.7"/></g>
<g font-size="11" fill="#4A1B0C">
<text x="457" y="468">Dirigir a rehacer la caracterizacion</text>
</g>
<rect x="425" y="497" width="275" height="37" rx="4" fill="#FAECE7" stroke="#993C1D"/>
<g fill="none" stroke="#993C1D" stroke-width="1.3"><circle cx="442" cy="515.5" r="5.5"/><polyline points="440.5,508.0 444.5,510.3 440.2,512.7"/></g>
<g font-size="11" fill="#4A1B0C">
<text x="457" y="519">Revocar la personalizacion</text>
</g>
<rect x="425" y="548" width="275" height="37" rx="4" fill="#FAECE7" stroke="#993C1D"/>
<g fill="none" stroke="#993C1D" stroke-width="1.3"><circle cx="442" cy="566.5" r="5.5"/><polyline points="440.5,559.0 444.5,561.3 440.2,563.7"/></g>
<g font-size="11" fill="#4A1B0C">
<text x="457" y="570">Cancelar la eliminacion</text>
</g>
<rect x="425" y="599" width="275" height="52" rx="4" fill="#FAECE7" stroke="#993C1D"/>
<g fill="none" stroke="#993C1D" stroke-width="1.3"><circle cx="442" cy="625.0" r="5.5"/><polyline points="440.5,617.5 444.5,619.8 440.2,622.2"/></g>
<g font-size="11" fill="#4A1B0C">
<text x="457" y="621">Solicitar el reingreso por sesion</text>
<text x="457" y="636">expirada</text>
</g>
<rect x="425" y="665" width="275" height="37" rx="4" fill="#FAECE7" stroke="#993C1D"/>
<g fill="none" stroke="#993C1D" stroke-width="1.3"><circle cx="442" cy="683.5" r="5.5"/><polyline points="440.5,676.0 444.5,678.3 440.2,680.7"/></g>
<g font-size="11" fill="#4A1B0C">
<text x="457" y="687">Informar la peticion invalida</text>
</g>
<rect x="800" y="80" width="165" height="37" rx="4" fill="#EEEDFE" stroke="#534AB7"/>
<g fill="none" stroke="#534AB7" stroke-width="1.3"><circle cx="817" cy="97.0" r="5.5"/><line x1="810.5" y1="104.5" x2="823.5" y2="104.5"/></g>
<g font-size="11" fill="#26215C">
<text x="832" y="102">Usuario</text>
</g>
<rect x="800" y="131" width="165" height="37" rx="4" fill="#EEEDFE" stroke="#534AB7"/>
<g fill="none" stroke="#534AB7" stroke-width="1.3"><circle cx="817" cy="148.0" r="5.5"/><line x1="810.5" y1="155.5" x2="823.5" y2="155.5"/></g>
<g font-size="11" fill="#26215C">
<text x="832" y="153">CapsulaDePerfil</text>
</g>
<rect x="800" y="182" width="165" height="37" rx="4" fill="#EEEDFE" stroke="#534AB7"/>
<g fill="none" stroke="#534AB7" stroke-width="1.3"><circle cx="817" cy="199.0" r="5.5"/><line x1="810.5" y1="206.5" x2="823.5" y2="206.5"/></g>
<g font-size="11" fill="#26215C">
<text x="832" y="204">Consentimiento</text>
</g>
<rect x="800" y="233" width="165" height="37" rx="4" fill="#EEEDFE" stroke="#534AB7" stroke-dasharray="4 3"/>
<g fill="none" stroke="#534AB7" stroke-width="1.3"><circle cx="817" cy="250.0" r="5.5"/><line x1="810.5" y1="257.5" x2="823.5" y2="257.5"/></g>
<g font-size="11" fill="#26215C">
<text x="832" y="255">ContadorDeUsoDiario</text>
</g>

<g font-size="9" text-anchor="middle">
<rect x="90" y="88" width="16" height="13" rx="3" fill="#FFFFFF" stroke="#B4B2A9"/><text x="98" y="98" fill="#5F5E5A">1</text>
<rect x="90" y="109" width="16" height="13" rx="3" fill="#FFFFFF" stroke="#B4B2A9"/><text x="98" y="119" fill="#5F5E5A">3</text>
<rect x="351" y="78" width="16" height="13" rx="3" fill="#FFFFFF" stroke="#B4B2A9"/><text x="359" y="88" fill="#5F5E5A">1</text>
<rect x="706" y="92" width="16" height="13" rx="3" fill="#FFFFFF" stroke="#B4B2A9"/><text x="714" y="102" fill="#5F5E5A">1</text>
<rect x="351" y="104" width="16" height="13" rx="3" fill="#FFFFFF" stroke="#B4B2A9"/><text x="359" y="114" fill="#5F5E5A">1</text>
<rect x="351" y="124" width="16" height="13" rx="3" fill="#FFFFFF" stroke="#B4B2A9"/><text x="359" y="134" fill="#5F5E5A">2</text>
<rect x="351" y="156" width="16" height="13" rx="3" fill="#FFFFFF" stroke="#B4B2A9"/><text x="359" y="166" fill="#5F5E5A">2</text>
<rect x="351" y="180" width="16" height="13" rx="3" fill="#FFFFFF" stroke="#B4B2A9"/><text x="359" y="190" fill="#5F5E5A">3</text>
<rect x="706" y="263" width="16" height="13" rx="3" fill="#FFFFFF" stroke="#B4B2A9"/><text x="714" y="273" fill="#5F5E5A">3</text>
<rect x="706" y="286" width="16" height="13" rx="3" fill="#FFFFFF" stroke="#B4B2A9"/><text x="714" y="296" fill="#5F5E5A">3</text>
<rect x="706" y="301" width="16" height="13" rx="3" fill="#FFFFFF" stroke="#B4B2A9"/><text x="714" y="311" fill="#5F5E5A">3</text>
<rect x="706" y="323" width="16" height="13" rx="3" fill="#FFFFFF" stroke="#B4B2A9"/><text x="714" y="333" fill="#5F5E5A">3</text>
<rect x="706" y="346" width="16" height="13" rx="3" fill="#FFFFFF" stroke="#B4B2A9"/><text x="714" y="356" fill="#5F5E5A">4</text>
<rect x="351" y="231" width="16" height="13" rx="3" fill="#FFFFFF" stroke="#B4B2A9"/><text x="359" y="241" fill="#5F5E5A">4</text>
<rect x="351" y="204" width="34" height="13" rx="3" fill="#FFFFFF" stroke="#B4B2A9"/><text x="368" y="214" fill="#5F5E5A">FA-01</text>
<rect x="706" y="406" width="34" height="13" rx="3" fill="#FFFFFF" stroke="#B4B2A9"/><text x="723" y="416" fill="#5F5E5A">FA-01</text>
<rect x="706" y="431" width="34" height="13" rx="3" fill="#FFFFFF" stroke="#B4B2A9"/><text x="723" y="441" fill="#4A1B0C">FA-01</text>
<rect x="351" y="297" width="34" height="13" rx="3" fill="#FFFFFF" stroke="#B4B2A9"/><text x="368" y="307" fill="#4A1B0C">FA-01</text>
<rect x="351" y="254" width="34" height="13" rx="3" fill="#FFFFFF" stroke="#B4B2A9"/><text x="368" y="264" fill="#5F5E5A">FA-02</text>
<rect x="706" y="520" width="34" height="13" rx="3" fill="#FFFFFF" stroke="#B4B2A9"/><text x="723" y="530" fill="#5F5E5A">FA-02</text>
<rect x="706" y="497" width="34" height="13" rx="3" fill="#FFFFFF" stroke="#B4B2A9"/><text x="723" y="507" fill="#5F5E5A">FA-02</text>
<rect x="351" y="139" width="34" height="13" rx="3" fill="#FFFFFF" stroke="#B4B2A9"/><text x="368" y="149" fill="#5F5E5A">FA-02</text>
<rect x="351" y="279" width="34" height="13" rx="3" fill="#FFFFFF" stroke="#B4B2A9"/><text x="368" y="289" fill="#5F5E5A">FA-03</text>
<rect x="351" y="325" width="34" height="13" rx="3" fill="#FFFFFF" stroke="#B4B2A9"/><text x="368" y="335" fill="#5F5E5A">FA-03</text>
<rect x="706" y="116" width="34" height="13" rx="3" fill="#FFFFFF" stroke="#B4B2A9"/><text x="723" y="126" fill="#5F5E5A">FE-01</text>
<rect x="351" y="363" width="34" height="13" rx="3" fill="#FFFFFF" stroke="#B4B2A9"/><text x="368" y="373" fill="#4A1B0C">FE-01</text>
<rect x="706" y="229" width="34" height="13" rx="3" fill="#FFFFFF" stroke="#B4B2A9"/><text x="723" y="239" fill="#5F5E5A">FE-02</text>
<rect x="351" y="347" width="34" height="13" rx="3" fill="#FFFFFF" stroke="#B4B2A9"/><text x="368" y="357" fill="#5F5E5A">FE-02</text>
<rect x="351" y="390" width="34" height="13" rx="3" fill="#FFFFFF" stroke="#B4B2A9"/><text x="368" y="400" fill="#5F5E5A">FE-02</text>
</g>

<line x1="24" y1="728" x2="965" y2="728" stroke="#B4B2A9" stroke-width="1"/>
<text x="24" y="744" font-size="11" font-weight="500" fill="#5F5E5A">Cursos alternativos y de excepcion</text>
<g font-size="10">
<rect x="24" y="756" width="42" height="12" rx="3" fill="#FAECE7" stroke="#993C1D"/><text x="45" y="765" text-anchor="middle" fill="#4A1B0C">FA-01</text><text x="74" y="765" fill="#5F5E5A">Reiniciar caracterizacion (paso 1)</text>
<rect x="504" y="756" width="42" height="12" rx="3" fill="#FAECE7" stroke="#993C1D"/><text x="525" y="765" text-anchor="middle" fill="#4A1B0C">FA-02</text><text x="554" y="765" fill="#5F5E5A">Revocar personalizacion (paso 1)</text>
<rect x="24" y="772" width="42" height="12" rx="3" fill="#FAECE7" stroke="#993C1D"/><text x="45" y="781" text-anchor="middle" fill="#4A1B0C">FA-03</text><text x="74" y="781" fill="#5F5E5A">Cancelar eliminacion (paso 2)</text>
<rect x="504" y="772" width="42" height="12" rx="3" fill="#FAECE7" stroke="#993C1D"/><text x="525" y="781" text-anchor="middle" fill="#4A1B0C">FE-01</text><text x="554" y="781" fill="#5F5E5A">Sesion ausente (cualquier paso)</text>
<rect x="24" y="788" width="42" height="12" rx="3" fill="#FAECE7" stroke="#993C1D"/><text x="45" y="797" text-anchor="middle" fill="#4A1B0C">FE-02</text><text x="74" y="797" fill="#5F5E5A">Entrada invalida (pasos 2-3)</text>
</g>

<line x1="24" y1="814" x2="965" y2="814" stroke="#B4B2A9" stroke-width="1"/>
<g font-size="11">
<rect x="24" y="825" width="13" height="13" rx="2" fill="#E6F1FB" stroke="#185FA5"/>
<g fill="none" stroke="#185FA5" stroke-width="1.3"><line x1="23.5" y1="825.5" x2="23.5" y2="837.5"/><line x1="23.5" y1="831.5" x2="27.5" y2="831.5"/><circle cx="32.5" cy="831.5" r="5"/></g>
<text x="44" y="835" fill="#5F5E5A">Objeto tipo Borde</text>
<rect x="155.4" y="825" width="13" height="13" rx="2" fill="#E1F5EE" stroke="#0F6E56"/>
<g fill="none" stroke="#0F6E56" stroke-width="1.3"><circle cx="161.9" cy="831.5" r="5.5"/><polyline points="160.4,824.0 164.4,826.3 160.1,828.7"/></g>
<text x="175.4" y="835" fill="#5F5E5A">Controlador</text>
<rect x="249.60000000000002" y="825" width="13" height="13" rx="2" fill="#EEEDFE" stroke="#534AB7"/>
<g fill="none" stroke="#534AB7" stroke-width="1.3"><circle cx="256.1" cy="830.0" r="5.5"/><line x1="249.60000000000002" y1="837.5" x2="262.6" y2="837.5"/></g>
<text x="269.6" y="835" fill="#5F5E5A">Entidad</text>
</g>
<g font-size="11">
<rect x="24" y="847" width="13" height="13" rx="2" fill="#FAECE7" stroke="#993C1D"/><text x="44" y="857" fill="#5F5E5A">Participa solo en un curso alternativo o de excepcion</text>
<rect x="384" y="847" width="13" height="13" rx="2" fill="#EEEDFE" stroke="#534AB7" stroke-dasharray="4 3"/><text x="404" y="857" fill="#5F5E5A">Entidad descubierta, ausente de MD-01</text>
<line x1="694" y1="854" x2="724" y2="854" stroke="#8a8a8a" stroke-width="1"/><text x="732" y="857" fill="#5F5E5A">Asociacion de comunicacion (sin direccion)</text>
</g>
</svg>
