<svg xmlns="http://www.w3.org/2000/svg" width="1340" height="1265" viewBox="0 0 1340 1265" role="img" font-family="Segoe UI, Helvetica, Arial, sans-serif">
<title>DR-04 — Analisis de robustez de CU-04 «Eliminar cuenta»</title>
<desc>Diagrama de robustez ICONIX de Analisis de robustez de CU-04 «Eliminar cuenta». 1 actor(es), 3 objeto(s) tipo Borde, 12 Controlador(es) y 7 Entidad(es), en cuatro carriles verticales. Los objetos en terracota participan solo en cursos alternativos o de excepcion; la entidad con borde punteado es un descubrimiento de robustez ausente del modelo de dominio MD-01. Vista derivada: la fuente de verdad es el archivo .puml.</desc>

<rect x="0" y="0" width="1340" height="1265" fill="#FFFFFF"/>

<text x="24" y="26" font-size="14" font-weight="500" fill="#2C2C2A">DR-04 · Analisis de robustez de CU-04 «Eliminar cuenta»</text>
<g font-size="11" font-weight="500" fill="#5F5E5A" text-anchor="middle">
<text x="72" y="56">Actor</text>
<text x="322" y="56">Objeto tipo Borde</text>
<text x="752" y="56">Controlador</text>
<text x="1222" y="56">Entidad</text>
</g>
<line x1="24" y1="64" x2="1305" y2="64" stroke="#B4B2A9" stroke-width="1"/>

<g fill="none" stroke="#8a8a8a" stroke-width="1">
<polyline points="84,98 201,98 201,114 225,114"/>
<polyline points="420,97 496,97 496,97 615,97"/>
<polyline points="890,114 966,114 966,162 890,162"/>
<polyline points="890,179 1058,179 1058,97 1140,97"/>
<polyline points="420,131 496,131 496,196 615,196"/>
<polyline points="420,148 509,148 509,261 615,261"/>
<polyline points="890,244 1070,244 1070,114 1140,114"/>
<polyline points="890,278 966,278 966,411 890,411"/>
<polyline points="890,360 1081,360 1081,131 1140,131"/>
<polyline points="890,377 1058,377 1058,198 1140,198"/>
<polyline points="890,394 1105,394 1105,248 1140,248"/>
<polyline points="890,428 1070,428 1070,300 1140,300"/>
<polyline points="890,445 966,445 966,561 890,561"/>
<polyline points="890,544 1116,544 1116,350 1140,350"/>
<polyline points="890,462 1008,462 1008,643 890,643"/>
<polyline points="890,626 1058,626 1058,402 1140,402"/>
<polyline points="420,307 509,307 509,609 615,609"/>
<polyline points="890,479 1022,479 1022,691 890,691"/>
<polyline points="890,709 1070,709 1070,452 1140,452" stroke="#993C1D" stroke-dasharray="5 3"/>
<polyline points="420,165 522,165 522,757 615,757"/>
<polyline points="420,182 535,182 535,774 615,774"/>
<polyline points="420,199 548,199 548,822 615,822"/>
<polyline points="420,373 588,373 588,840 615,840" stroke="#993C1D" stroke-dasharray="5 3"/>
<polyline points="890,295 980,295 980,905 890,905"/>
<polyline points="420,216 496,216 496,888 615,888"/>
<polyline points="890,312 994,312 994,970 890,970"/>
<polyline points="420,233 562,233 562,953 615,953"/>
<polyline points="890,496 1036,496 1036,1052 890,1052"/>
<polyline points="890,1018 1093,1018 1093,148 1140,148"/>
<polyline points="420,250 575,250 575,1035 615,1035"/>
</g>

<g fill="none" stroke="#2C2C2A" stroke-width="1.4"><circle cx="72.0" cy="92" r="9"/><line x1="72.0" y1="101" x2="72.0" y2="123"/><line x1="60.0" y1="110" x2="84.0" y2="110"/><line x1="72.0" y1="123" x2="62.0" y2="138"/><line x1="72.0" y1="123" x2="82.0" y2="138"/></g>
<g font-size="11" text-anchor="middle" fill="#2C2C2A">
<text x="72" y="154">Usuario adulto</text>
</g>
<rect x="225" y="80" width="195" height="187" rx="4" fill="#E6F1FB" stroke="#185FA5"/>
<g fill="none" stroke="#185FA5" stroke-width="1.3"><line x1="235" y1="167.5" x2="235" y2="179.5"/><line x1="235" y1="173.5" x2="239" y2="173.5"/><circle cx="244" cy="173.5" r="5"/></g>
<g font-size="11" fill="#0C447C">
<text x="257" y="177">Gestion de cuenta (P-13)</text>
</g>
<rect x="225" y="281" width="195" height="52" rx="4" fill="#E6F1FB" stroke="#185FA5"/>
<g fill="none" stroke="#185FA5" stroke-width="1.3"><line x1="235" y1="301.0" x2="235" y2="313.0"/><line x1="235" y1="307.0" x2="239" y2="307.0"/><circle cx="244" cy="307.0" r="5"/></g>
<g font-size="11" fill="#0C447C">
<text x="257" y="303">Presentacion / landing</text>
<text x="257" y="318">(P-01)</text>
</g>
<rect x="225" y="347" width="195" height="52" rx="4" fill="#FAECE7" stroke="#993C1D"/>
<g fill="none" stroke="#993C1D" stroke-width="1.3"><line x1="235" y1="367.0" x2="235" y2="379.0"/><line x1="235" y1="373.0" x2="239" y2="373.0"/><circle cx="244" cy="373.0" r="5"/></g>
<g font-size="11" fill="#4A1B0C">
<text x="257" y="369">Inicio de sesion de</text>
<text x="257" y="384">usuario (P-03)</text>
</g>
<rect x="615" y="80" width="275" height="51" rx="4" fill="#E1F5EE" stroke="#0F6E56"/>
<g fill="none" stroke="#0F6E56" stroke-width="1.3"><circle cx="632" cy="105.5" r="5.5"/><polyline points="630.5,98.0 634.5,100.3 630.2,102.7"/></g>
<g font-size="11" fill="#04342C">
<text x="647" y="109">Verificar la sesion y el rol de usuario</text>
</g>
<rect x="615" y="145" width="275" height="68" rx="4" fill="#E1F5EE" stroke="#0F6E56"/>
<g fill="none" stroke="#0F6E56" stroke-width="1.3"><circle cx="632" cy="179.0" r="5.5"/><polyline points="630.5,171.5 634.5,173.8 630.2,176.2"/></g>
<g font-size="11" fill="#04342C">
<text x="647" y="182">Presentar el alcance de la supresion</text>
</g>
<rect x="615" y="227" width="275" height="102" rx="4" fill="#E1F5EE" stroke="#0F6E56"/>
<g fill="none" stroke="#0F6E56" stroke-width="1.3"><circle cx="632" cy="278.0" r="5.5"/><polyline points="630.5,270.5 634.5,272.8 630.2,275.2"/></g>
<g font-size="11" fill="#04342C">
<text x="647" y="274">Comprobar en servidor que quien</text>
<text x="647" y="289">confirma es el titular</text>
</g>
<rect x="615" y="343" width="275" height="170" rx="4" fill="#E1F5EE" stroke="#0F6E56"/>
<g fill="none" stroke="#0F6E56" stroke-width="1.3"><circle cx="632" cy="428.0" r="5.5"/><polyline points="630.5,420.5 634.5,422.8 630.2,425.2"/></g>
<g font-size="11" fill="#04342C">
<text x="647" y="424">Suprimir la cuenta y ejecutar el</text>
<text x="647" y="439">borrado en cascada</text>
</g>
<rect x="615" y="527" width="275" height="51" rx="4" fill="#E1F5EE" stroke="#0F6E56"/>
<g fill="none" stroke="#0F6E56" stroke-width="1.3"><circle cx="632" cy="552.5" r="5.5"/><polyline points="630.5,545.0 634.5,547.3 630.2,549.7"/></g>
<g font-size="11" fill="#04342C">
<text x="647" y="556">Conservar la telemetria sin identidad</text>
</g>
<rect x="615" y="592" width="275" height="68" rx="4" fill="#E1F5EE" stroke="#0F6E56"/>
<g fill="none" stroke="#0F6E56" stroke-width="1.3"><circle cx="632" cy="626.0" r="5.5"/><polyline points="630.5,618.5 634.5,620.8 630.2,623.2"/></g>
<g font-size="11" fill="#04342C">
<text x="647" y="622">Cerrar la sesion y confirmar la</text>
<text x="647" y="637">supresion</text>
</g>
<rect x="615" y="674" width="275" height="52" rx="4" fill="#FAECE7" stroke="#993C1D"/>
<g fill="none" stroke="#993C1D" stroke-width="1.3"><circle cx="632" cy="700.0" r="5.5"/><polyline points="630.5,692.5 634.5,694.8 630.2,697.2"/></g>
<g font-size="11" fill="#4A1B0C">
<text x="647" y="696">Cerrar la conversacion abierta y</text>
<text x="647" y="711">descartar su contenido</text>
</g>
<rect x="615" y="740" width="275" height="51" rx="4" fill="#FAECE7" stroke="#993C1D"/>
<g fill="none" stroke="#993C1D" stroke-width="1.3"><circle cx="632" cy="765.5" r="5.5"/><polyline points="630.5,758.0 634.5,760.3 630.2,762.7"/></g>
<g font-size="11" fill="#4A1B0C">
<text x="647" y="769">Cancelar la eliminacion</text>
</g>
<rect x="615" y="805" width="275" height="52" rx="4" fill="#FAECE7" stroke="#993C1D"/>
<g fill="none" stroke="#993C1D" stroke-width="1.3"><circle cx="632" cy="831.0" r="5.5"/><polyline points="630.5,823.5 634.5,825.8 630.2,828.2"/></g>
<g font-size="11" fill="#4A1B0C">
<text x="647" y="827">Solicitar el reingreso por sesion</text>
<text x="647" y="842">expirada</text>
</g>
<rect x="615" y="871" width="275" height="51" rx="4" fill="#FAECE7" stroke="#993C1D"/>
<g fill="none" stroke="#993C1D" stroke-width="1.3"><circle cx="632" cy="896.5" r="5.5"/><polyline points="630.5,889.0 634.5,891.3 630.2,893.7"/></g>
<g font-size="11" fill="#4A1B0C">
<text x="647" y="900">Denegar por permiso insuficiente</text>
</g>
<rect x="615" y="936" width="275" height="51" rx="4" fill="#FAECE7" stroke="#993C1D"/>
<g fill="none" stroke="#993C1D" stroke-width="1.3"><circle cx="632" cy="961.5" r="5.5"/><polyline points="630.5,954.0 634.5,956.3 630.2,958.7"/></g>
<g font-size="11" fill="#4A1B0C">
<text x="647" y="965">Informar la peticion invalida</text>
</g>
<rect x="615" y="1001" width="275" height="68" rx="4" fill="#FAECE7" stroke="#993C1D"/>
<g fill="none" stroke="#993C1D" stroke-width="1.3"><circle cx="632" cy="1035.0" r="5.5"/><polyline points="630.5,1027.5 634.5,1029.8 630.2,1032.2"/></g>
<g font-size="11" fill="#4A1B0C">
<text x="647" y="1038">Deshacer la cascada interrumpida</text>
</g>
<rect x="1140" y="80" width="165" height="85" rx="4" fill="#EEEDFE" stroke="#534AB7"/>
<g fill="none" stroke="#534AB7" stroke-width="1.3"><circle cx="1157" cy="121.0" r="5.5"/><line x1="1150.5" y1="128.5" x2="1163.5" y2="128.5"/></g>
<g font-size="11" fill="#26215C">
<text x="1172" y="126">Usuario</text>
</g>
<rect x="1140" y="179" width="165" height="37" rx="4" fill="#EEEDFE" stroke="#534AB7"/>
<g fill="none" stroke="#534AB7" stroke-width="1.3"><circle cx="1157" cy="196.0" r="5.5"/><line x1="1150.5" y1="203.5" x2="1163.5" y2="203.5"/></g>
<g font-size="11" fill="#26215C">
<text x="1172" y="201">CapsulaDePerfil</text>
</g>
<rect x="1140" y="230" width="165" height="37" rx="4" fill="#EEEDFE" stroke="#534AB7"/>
<g fill="none" stroke="#534AB7" stroke-width="1.3"><circle cx="1157" cy="247.0" r="5.5"/><line x1="1150.5" y1="254.5" x2="1163.5" y2="254.5"/></g>
<g font-size="11" fill="#26215C">
<text x="1172" y="252">Consentimiento</text>
</g>
<rect x="1140" y="281" width="165" height="37" rx="4" fill="#EEEDFE" stroke="#534AB7"/>
<g fill="none" stroke="#534AB7" stroke-width="1.3"><circle cx="1157" cy="298.0" r="5.5"/><line x1="1150.5" y1="305.5" x2="1163.5" y2="305.5"/></g>
<g font-size="11" fill="#26215C">
<text x="1172" y="303">ContadorDeUsoDiario</text>
</g>
<rect x="1140" y="332" width="165" height="37" rx="4" fill="#EEEDFE" stroke="#534AB7"/>
<g fill="none" stroke="#534AB7" stroke-width="1.3"><circle cx="1157" cy="349.0" r="5.5"/><line x1="1150.5" y1="356.5" x2="1163.5" y2="356.5"/></g>
<g font-size="11" fill="#26215C">
<text x="1172" y="354">EventoOperativo</text>
</g>
<rect x="1140" y="383" width="165" height="37" rx="4" fill="#EEEDFE" stroke="#534AB7"/>
<g fill="none" stroke="#534AB7" stroke-width="1.3"><circle cx="1157" cy="400.0" r="5.5"/><line x1="1150.5" y1="407.5" x2="1163.5" y2="407.5"/></g>
<g font-size="11" fill="#26215C">
<text x="1172" y="405">Visitante</text>
</g>
<rect x="1140" y="434" width="165" height="37" rx="4" fill="#FAECE7" stroke="#993C1D"/>
<g fill="none" stroke="#993C1D" stroke-width="1.3"><circle cx="1157" cy="451.0" r="5.5"/><line x1="1150.5" y1="458.5" x2="1163.5" y2="458.5"/></g>
<g font-size="11" fill="#4A1B0C">
<text x="1172" y="456">Conversacion</text>
</g>

<g font-size="9" text-anchor="middle">
<rect x="129" y="91" width="16" height="13" rx="3" fill="#FFFFFF" stroke="#B4B2A9"/><text x="137" y="101" fill="#5F5E5A">1</text>
<rect x="429" y="90" width="16" height="13" rx="3" fill="#FFFFFF" stroke="#B4B2A9"/><text x="437" y="100" fill="#5F5E5A">1</text>
<rect x="899" y="107" width="16" height="13" rx="3" fill="#FFFFFF" stroke="#B4B2A9"/><text x="907" y="117" fill="#5F5E5A">1</text>
<rect x="899" y="172" width="16" height="13" rx="3" fill="#FFFFFF" stroke="#B4B2A9"/><text x="907" y="182" fill="#5F5E5A">1</text>
<rect x="429" y="124" width="16" height="13" rx="3" fill="#FFFFFF" stroke="#B4B2A9"/><text x="437" y="134" fill="#5F5E5A">1</text>
<rect x="429" y="141" width="16" height="13" rx="3" fill="#FFFFFF" stroke="#B4B2A9"/><text x="437" y="151" fill="#5F5E5A">2</text>
<rect x="899" y="237" width="16" height="13" rx="3" fill="#FFFFFF" stroke="#B4B2A9"/><text x="907" y="247" fill="#5F5E5A">2</text>
<rect x="899" y="271" width="16" height="13" rx="3" fill="#FFFFFF" stroke="#B4B2A9"/><text x="907" y="281" fill="#5F5E5A">3</text>
<rect x="899" y="353" width="16" height="13" rx="3" fill="#FFFFFF" stroke="#B4B2A9"/><text x="907" y="363" fill="#5F5E5A">3</text>
<rect x="899" y="370" width="16" height="13" rx="3" fill="#FFFFFF" stroke="#B4B2A9"/><text x="907" y="380" fill="#5F5E5A">3</text>
<rect x="899" y="387" width="16" height="13" rx="3" fill="#FFFFFF" stroke="#B4B2A9"/><text x="907" y="397" fill="#5F5E5A">3</text>
<rect x="899" y="421" width="16" height="13" rx="3" fill="#FFFFFF" stroke="#B4B2A9"/><text x="907" y="431" fill="#5F5E5A">3</text>
<rect x="899" y="438" width="16" height="13" rx="3" fill="#FFFFFF" stroke="#B4B2A9"/><text x="907" y="448" fill="#5F5E5A">3</text>
<rect x="899" y="537" width="16" height="13" rx="3" fill="#FFFFFF" stroke="#B4B2A9"/><text x="907" y="547" fill="#5F5E5A">3</text>
<rect x="899" y="455" width="16" height="13" rx="3" fill="#FFFFFF" stroke="#B4B2A9"/><text x="907" y="465" fill="#5F5E5A">4</text>
<rect x="899" y="619" width="16" height="13" rx="3" fill="#FFFFFF" stroke="#B4B2A9"/><text x="907" y="629" fill="#5F5E5A">4</text>
<rect x="429" y="300" width="16" height="13" rx="3" fill="#FFFFFF" stroke="#B4B2A9"/><text x="437" y="310" fill="#5F5E5A">4</text>
<rect x="899" y="472" width="34" height="13" rx="3" fill="#FFFFFF" stroke="#B4B2A9"/><text x="916" y="482" fill="#5F5E5A">FA-02</text>
<rect x="899" y="702" width="34" height="13" rx="3" fill="#FFFFFF" stroke="#B4B2A9"/><text x="916" y="712" fill="#4A1B0C">FA-02</text>
<rect x="429" y="158" width="34" height="13" rx="3" fill="#FFFFFF" stroke="#B4B2A9"/><text x="446" y="168" fill="#5F5E5A">FA-03</text>
<rect x="429" y="175" width="34" height="13" rx="3" fill="#FFFFFF" stroke="#B4B2A9"/><text x="446" y="185" fill="#5F5E5A">FA-03</text>
<rect x="429" y="192" width="34" height="13" rx="3" fill="#FFFFFF" stroke="#B4B2A9"/><text x="446" y="202" fill="#5F5E5A">FE-01</text>
<rect x="429" y="366" width="34" height="13" rx="3" fill="#FFFFFF" stroke="#B4B2A9"/><text x="446" y="376" fill="#4A1B0C">FE-01</text>
<rect x="899" y="288" width="34" height="13" rx="3" fill="#FFFFFF" stroke="#B4B2A9"/><text x="916" y="298" fill="#5F5E5A">FE-02</text>
<rect x="429" y="209" width="34" height="13" rx="3" fill="#FFFFFF" stroke="#B4B2A9"/><text x="446" y="219" fill="#5F5E5A">FE-02</text>
<rect x="899" y="305" width="34" height="13" rx="3" fill="#FFFFFF" stroke="#B4B2A9"/><text x="916" y="315" fill="#5F5E5A">FE-03</text>
<rect x="429" y="226" width="34" height="13" rx="3" fill="#FFFFFF" stroke="#B4B2A9"/><text x="446" y="236" fill="#5F5E5A">FE-03</text>
<rect x="899" y="489" width="34" height="13" rx="3" fill="#FFFFFF" stroke="#B4B2A9"/><text x="916" y="499" fill="#5F5E5A">FE-04</text>
<rect x="899" y="1011" width="34" height="13" rx="3" fill="#FFFFFF" stroke="#B4B2A9"/><text x="916" y="1021" fill="#5F5E5A">FE-04</text>
<rect x="429" y="243" width="34" height="13" rx="3" fill="#FFFFFF" stroke="#B4B2A9"/><text x="446" y="253" fill="#5F5E5A">FE-04</text>
</g>

<line x1="24" y1="1095" x2="1305" y2="1095" stroke="#B4B2A9" stroke-width="1"/>
<text x="24" y="1111" font-size="11" font-weight="500" fill="#5F5E5A">Cursos alternativos y de excepcion</text>
<g font-size="10">
<rect x="24" y="1123" width="42" height="12" rx="3" fill="#FAECE7" stroke="#993C1D"/><text x="45" y="1132" text-anchor="middle" fill="#4A1B0C">FA-01</text><text x="74" y="1132" fill="#5F5E5A">Cuenta sin capsula ni Consentimiento (paso 3)</text>
<rect x="664" y="1123" width="42" height="12" rx="3" fill="#FAECE7" stroke="#993C1D"/><text x="685" y="1132" text-anchor="middle" fill="#4A1B0C">FA-02</text><text x="714" y="1132" fill="#5F5E5A">Conversacion abierta al eliminar (paso 3)</text>
<rect x="24" y="1139" width="42" height="12" rx="3" fill="#FAECE7" stroke="#993C1D"/><text x="45" y="1148" text-anchor="middle" fill="#4A1B0C">FA-03</text><text x="74" y="1148" fill="#5F5E5A">Cancelar la eliminacion (paso 2)</text>
<rect x="664" y="1139" width="42" height="12" rx="3" fill="#FAECE7" stroke="#993C1D"/><text x="685" y="1148" text-anchor="middle" fill="#4A1B0C">FE-01</text><text x="714" y="1148" fill="#5F5E5A">Sesion ausente (cualquier paso)</text>
<rect x="24" y="1155" width="42" height="12" rx="3" fill="#FAECE7" stroke="#993C1D"/><text x="45" y="1164" text-anchor="middle" fill="#4A1B0C">FE-02</text><text x="74" y="1164" fill="#5F5E5A">Permiso insuficiente (paso 2)</text>
<rect x="664" y="1155" width="42" height="12" rx="3" fill="#FAECE7" stroke="#993C1D"/><text x="685" y="1164" text-anchor="middle" fill="#4A1B0C">FE-03</text><text x="714" y="1164" fill="#5F5E5A">Entrada invalida (paso 2)</text>
<rect x="24" y="1171" width="42" height="12" rx="3" fill="#FAECE7" stroke="#993C1D"/><text x="45" y="1180" text-anchor="middle" fill="#4A1B0C">FE-04</text><text x="74" y="1180" fill="#5F5E5A">Cascada interrumpida (paso 3)</text>
</g>

<line x1="24" y1="1197" x2="1305" y2="1197" stroke="#B4B2A9" stroke-width="1"/>
<g font-size="11">
<rect x="24" y="1208" width="13" height="13" rx="2" fill="#E6F1FB" stroke="#185FA5"/>
<g fill="none" stroke="#185FA5" stroke-width="1.3"><line x1="23.5" y1="1208.5" x2="23.5" y2="1220.5"/><line x1="23.5" y1="1214.5" x2="27.5" y2="1214.5"/><circle cx="32.5" cy="1214.5" r="5"/></g>
<text x="44" y="1218" fill="#5F5E5A">Objeto tipo Borde</text>
<rect x="155.4" y="1208" width="13" height="13" rx="2" fill="#E1F5EE" stroke="#0F6E56"/>
<g fill="none" stroke="#0F6E56" stroke-width="1.3"><circle cx="161.9" cy="1214.5" r="5.5"/><polyline points="160.4,1207.0 164.4,1209.3 160.1,1211.7"/></g>
<text x="175.4" y="1218" fill="#5F5E5A">Controlador</text>
<rect x="249.60000000000002" y="1208" width="13" height="13" rx="2" fill="#EEEDFE" stroke="#534AB7"/>
<g fill="none" stroke="#534AB7" stroke-width="1.3"><circle cx="256.1" cy="1213.0" r="5.5"/><line x1="249.60000000000002" y1="1220.5" x2="262.6" y2="1220.5"/></g>
<text x="269.6" y="1218" fill="#5F5E5A">Entidad</text>
</g>
<g font-size="11">
<rect x="24" y="1230" width="13" height="13" rx="2" fill="#FAECE7" stroke="#993C1D"/><text x="44" y="1240" fill="#5F5E5A">Participa solo en un curso alternativo o de excepcion</text>
<rect x="384" y="1230" width="13" height="13" rx="2" fill="#EEEDFE" stroke="#534AB7" stroke-dasharray="4 3"/><text x="404" y="1240" fill="#5F5E5A">Entidad descubierta, ausente de MD-01</text>
<line x1="830" y1="1237" x2="860" y2="1237" stroke="#8a8a8a" stroke-width="1"/><text x="868" y="1240" fill="#5F5E5A">Asociacion de comunicacion (sin direccion)</text>
</g>
</svg>
