<svg xmlns="http://www.w3.org/2000/svg" width="1000" height="949" viewBox="0 0 1000 949" role="img" font-family="Segoe UI, Helvetica, Arial, sans-serif">
<title>DR-04 — Analisis de robustez de CU-04 «Eliminar cuenta»</title>
<desc>Diagrama de robustez ICONIX de Analisis de robustez de CU-04 «Eliminar cuenta». 1 actor(es), 3 objeto(s) tipo Borde, 12 Controlador(es) y 7 Entidad(es), en cuatro carriles verticales. Los objetos en terracota participan solo en cursos alternativos o de excepcion; la entidad con borde punteado es un descubrimiento de robustez ausente del modelo de dominio MD-01. Vista derivada: la fuente de verdad es el archivo .puml.</desc>

<rect x="0" y="0" width="1000" height="949" fill="#FFFFFF"/>

<text x="24" y="26" font-size="14" font-weight="500" fill="#2C2C2A">DR-04 · Analisis de robustez de CU-04 «Eliminar cuenta»</text>
<g font-size="11" font-weight="500" fill="#5F5E5A" text-anchor="middle">
<text x="72" y="56">Actor</text>
<text x="248" y="56">Objeto tipo Borde</text>
<text x="562" y="56">Controlador</text>
<text x="882" y="56">Entidad</text>
</g>
<line x1="24" y1="64" x2="965" y2="64" stroke="#B4B2A9" stroke-width="1"/>

<g fill="none" stroke="#8a8a8a" stroke-width="1">
<polyline points="84,98 124,98 124,87 150,87"/>
<polyline points="345,83 352,83 352,92 425,92"/>
<polyline points="700,105 708,105 708,140 700,140"/>
<polyline points="700,150 744,150 744,87 800,87"/>
<polyline points="345,90 364,90 364,159 425,159"/>
<polyline points="345,93 376,93 376,191 425,191"/>
<polyline points="700,199 752,199 752,95 800,95"/>
<polyline points="700,208 715,208 715,269 700,269"/>
<polyline points="700,253 760,253 760,102 800,102"/>
<polyline points="700,258 768,258 768,150 800,150"/>
<polyline points="700,264 776,264 776,200 800,200"/>
<polyline points="700,274 784,274 784,252 800,252"/>
<polyline points="700,279 722,279 722,326 700,326"/>
<polyline points="700,339 744,339 744,302 800,302"/>
<polyline points="700,284 729,284 729,391 700,391"/>
<polyline points="700,404 752,404 752,354 800,354"/>
<polyline points="345,157 388,157 388,378 425,378"/>
<polyline points="700,290 708,290 708,448 700,448"/>
<polyline points="700,466 760,466 760,404 800,404" stroke="#993C1D" stroke-dasharray="5 3"/>
<polyline points="345,97 400,97 400,509 425,509"/>
<polyline points="345,100 352,100 352,522 425,522"/>
<polyline points="345,104 364,104 364,565 425,565"/>
<polyline points="345,223 376,223 376,583 425,583" stroke="#993C1D" stroke-dasharray="5 3"/>
<polyline points="700,217 715,217 715,639 700,639"/>
<polyline points="345,107 388,107 388,626 425,626"/>
<polyline points="700,225 722,225 722,690 700,690"/>
<polyline points="345,110 400,110 400,677 425,677"/>
<polyline points="700,295 729,295 729,744 700,744"/>
<polyline points="700,725 768,725 768,110 800,110"/>
<polyline points="345,114 352,114 352,734 425,734"/>
</g>

<g fill="none" stroke="#2C2C2A" stroke-width="1.4"><circle cx="72.0" cy="92" r="9"/><line x1="72.0" y1="101" x2="72.0" y2="123"/><line x1="60.0" y1="110" x2="84.0" y2="110"/><line x1="72.0" y1="123" x2="62.0" y2="138"/><line x1="72.0" y1="123" x2="82.0" y2="138"/></g>
<g font-size="11" text-anchor="middle" fill="#2C2C2A">
<text x="72" y="154">Usuario adulto</text>
</g>
<rect x="150" y="80" width="195" height="37" rx="4" fill="#E6F1FB" stroke="#185FA5"/>
<g fill="none" stroke="#185FA5" stroke-width="1.3"><line x1="160" y1="92.5" x2="160" y2="104.5"/><line x1="160" y1="98.5" x2="164" y2="98.5"/><circle cx="169" cy="98.5" r="5"/></g>
<g font-size="11" fill="#0C447C">
<text x="182" y="102">Gestion de cuenta (P-13)</text>
</g>
<rect x="150" y="131" width="195" height="52" rx="4" fill="#E6F1FB" stroke="#185FA5"/>
<g fill="none" stroke="#185FA5" stroke-width="1.3"><line x1="160" y1="151.0" x2="160" y2="163.0"/><line x1="160" y1="157.0" x2="164" y2="157.0"/><circle cx="169" cy="157.0" r="5"/></g>
<g font-size="11" fill="#0C447C">
<text x="182" y="153">Presentacion / landing</text>
<text x="182" y="168">(P-01)</text>
</g>
<rect x="150" y="197" width="195" height="52" rx="4" fill="#FAECE7" stroke="#993C1D"/>
<g fill="none" stroke="#993C1D" stroke-width="1.3"><line x1="160" y1="217.0" x2="160" y2="229.0"/><line x1="160" y1="223.0" x2="164" y2="223.0"/><circle cx="169" cy="223.0" r="5"/></g>
<g font-size="11" fill="#4A1B0C">
<text x="182" y="219">Inicio de sesion de</text>
<text x="182" y="234">usuario (P-03)</text>
</g>
<rect x="425" y="80" width="275" height="37" rx="4" fill="#E1F5EE" stroke="#0F6E56"/>
<g fill="none" stroke="#0F6E56" stroke-width="1.3"><circle cx="442" cy="98.5" r="5.5"/><polyline points="440.5,91.0 444.5,93.3 440.2,95.7"/></g>
<g font-size="11" fill="#04342C">
<text x="457" y="102">Verificar la sesion y el rol de usuario</text>
</g>
<rect x="425" y="131" width="275" height="37" rx="4" fill="#E1F5EE" stroke="#0F6E56"/>
<g fill="none" stroke="#0F6E56" stroke-width="1.3"><circle cx="442" cy="149.5" r="5.5"/><polyline points="440.5,142.0 444.5,144.3 440.2,146.7"/></g>
<g font-size="11" fill="#04342C">
<text x="457" y="153">Presentar el alcance de la supresion</text>
</g>
<rect x="425" y="182" width="275" height="52" rx="4" fill="#E1F5EE" stroke="#0F6E56"/>
<g fill="none" stroke="#0F6E56" stroke-width="1.3"><circle cx="442" cy="208.0" r="5.5"/><polyline points="440.5,200.5 444.5,202.8 440.2,205.2"/></g>
<g font-size="11" fill="#04342C">
<text x="457" y="204">Comprobar en servidor que quien</text>
<text x="457" y="219">confirma es el titular</text>
</g>
<rect x="425" y="248" width="275" height="52" rx="4" fill="#E1F5EE" stroke="#0F6E56"/>
<g fill="none" stroke="#0F6E56" stroke-width="1.3"><circle cx="442" cy="274.0" r="5.5"/><polyline points="440.5,266.5 444.5,268.8 440.2,271.2"/></g>
<g font-size="11" fill="#04342C">
<text x="457" y="270">Suprimir la cuenta y ejecutar el</text>
<text x="457" y="285">borrado en cascada</text>
</g>
<rect x="425" y="314" width="275" height="37" rx="4" fill="#E1F5EE" stroke="#0F6E56"/>
<g fill="none" stroke="#0F6E56" stroke-width="1.3"><circle cx="442" cy="332.5" r="5.5"/><polyline points="440.5,325.0 444.5,327.3 440.2,329.7"/></g>
<g font-size="11" fill="#04342C">
<text x="457" y="336">Conservar la telemetria sin identidad</text>
</g>
<rect x="425" y="365" width="275" height="52" rx="4" fill="#E1F5EE" stroke="#0F6E56"/>
<g fill="none" stroke="#0F6E56" stroke-width="1.3"><circle cx="442" cy="391.0" r="5.5"/><polyline points="440.5,383.5 444.5,385.8 440.2,388.2"/></g>
<g font-size="11" fill="#04342C">
<text x="457" y="387">Cerrar la sesion y confirmar la</text>
<text x="457" y="402">supresion</text>
</g>
<rect x="425" y="431" width="275" height="52" rx="4" fill="#FAECE7" stroke="#993C1D"/>
<g fill="none" stroke="#993C1D" stroke-width="1.3"><circle cx="442" cy="457.0" r="5.5"/><polyline points="440.5,449.5 444.5,451.8 440.2,454.2"/></g>
<g font-size="11" fill="#4A1B0C">
<text x="457" y="453">Cerrar la conversacion abierta y</text>
<text x="457" y="468">descartar su contenido</text>
</g>
<rect x="425" y="497" width="275" height="37" rx="4" fill="#FAECE7" stroke="#993C1D"/>
<g fill="none" stroke="#993C1D" stroke-width="1.3"><circle cx="442" cy="515.5" r="5.5"/><polyline points="440.5,508.0 444.5,510.3 440.2,512.7"/></g>
<g font-size="11" fill="#4A1B0C">
<text x="457" y="519">Cancelar la eliminacion</text>
</g>
<rect x="425" y="548" width="275" height="52" rx="4" fill="#FAECE7" stroke="#993C1D"/>
<g fill="none" stroke="#993C1D" stroke-width="1.3"><circle cx="442" cy="574.0" r="5.5"/><polyline points="440.5,566.5 444.5,568.8 440.2,571.2"/></g>
<g font-size="11" fill="#4A1B0C">
<text x="457" y="570">Solicitar el reingreso por sesion</text>
<text x="457" y="585">expirada</text>
</g>
<rect x="425" y="614" width="275" height="37" rx="4" fill="#FAECE7" stroke="#993C1D"/>
<g fill="none" stroke="#993C1D" stroke-width="1.3"><circle cx="442" cy="632.5" r="5.5"/><polyline points="440.5,625.0 444.5,627.3 440.2,629.7"/></g>
<g font-size="11" fill="#4A1B0C">
<text x="457" y="636">Denegar por permiso insuficiente</text>
</g>
<rect x="425" y="665" width="275" height="37" rx="4" fill="#FAECE7" stroke="#993C1D"/>
<g fill="none" stroke="#993C1D" stroke-width="1.3"><circle cx="442" cy="683.5" r="5.5"/><polyline points="440.5,676.0 444.5,678.3 440.2,680.7"/></g>
<g font-size="11" fill="#4A1B0C">
<text x="457" y="687">Informar la peticion invalida</text>
</g>
<rect x="425" y="716" width="275" height="37" rx="4" fill="#FAECE7" stroke="#993C1D"/>
<g fill="none" stroke="#993C1D" stroke-width="1.3"><circle cx="442" cy="734.5" r="5.5"/><polyline points="440.5,727.0 444.5,729.3 440.2,731.7"/></g>
<g font-size="11" fill="#4A1B0C">
<text x="457" y="738">Deshacer la cascada interrumpida</text>
</g>
<rect x="800" y="80" width="165" height="37" rx="4" fill="#EEEDFE" stroke="#534AB7"/>
<g fill="none" stroke="#534AB7" stroke-width="1.3"><circle cx="817" cy="97.0" r="5.5"/><line x1="810.5" y1="104.5" x2="823.5" y2="104.5"/></g>
<g font-size="11" fill="#26215C">
<text x="832" y="102">Usuario</text>
</g>
<rect x="800" y="131" width="165" height="37" rx="4" fill="#EEEDFE" stroke="#534AB7"/>
<g fill="none" stroke="#534AB7" stroke-width="1.3"><circle cx="817" cy="148.0" r="5.5"/><line x1="810.5" y1="155.5" x2="823.5" y2="155.5"/></g>
<g font-size="11" fill="#26215C">
<text x="832" y="153">CapsulaDePerfil</text>
</g>
<rect x="800" y="182" width="165" height="37" rx="4" fill="#EEEDFE" stroke="#534AB7"/>
<g fill="none" stroke="#534AB7" stroke-width="1.3"><circle cx="817" cy="199.0" r="5.5"/><line x1="810.5" y1="206.5" x2="823.5" y2="206.5"/></g>
<g font-size="11" fill="#26215C">
<text x="832" y="204">Consentimiento</text>
</g>
<rect x="800" y="233" width="165" height="37" rx="4" fill="#EEEDFE" stroke="#534AB7"/>
<g fill="none" stroke="#534AB7" stroke-width="1.3"><circle cx="817" cy="250.0" r="5.5"/><line x1="810.5" y1="257.5" x2="823.5" y2="257.5"/></g>
<g font-size="11" fill="#26215C">
<text x="832" y="255">ContadorDeUsoDiario</text>
</g>
<rect x="800" y="284" width="165" height="37" rx="4" fill="#EEEDFE" stroke="#534AB7"/>
<g fill="none" stroke="#534AB7" stroke-width="1.3"><circle cx="817" cy="301.0" r="5.5"/><line x1="810.5" y1="308.5" x2="823.5" y2="308.5"/></g>
<g font-size="11" fill="#26215C">
<text x="832" y="306">EventoOperativo</text>
</g>
<rect x="800" y="335" width="165" height="37" rx="4" fill="#EEEDFE" stroke="#534AB7"/>
<g fill="none" stroke="#534AB7" stroke-width="1.3"><circle cx="817" cy="352.0" r="5.5"/><line x1="810.5" y1="359.5" x2="823.5" y2="359.5"/></g>
<g font-size="11" fill="#26215C">
<text x="832" y="357">Visitante</text>
</g>
<rect x="800" y="386" width="165" height="37" rx="4" fill="#FAECE7" stroke="#993C1D"/>
<g fill="none" stroke="#993C1D" stroke-width="1.3"><circle cx="817" cy="403.0" r="5.5"/><line x1="810.5" y1="410.5" x2="823.5" y2="410.5"/></g>
<g font-size="11" fill="#4A1B0C">
<text x="832" y="408">Conversacion</text>
</g>

<g font-size="9" text-anchor="middle">
<rect x="90" y="91" width="16" height="13" rx="3" fill="#FFFFFF" stroke="#B4B2A9"/><text x="98" y="101" fill="#5F5E5A">1</text>
<rect x="351" y="91" width="16" height="13" rx="3" fill="#FFFFFF" stroke="#B4B2A9"/><text x="359" y="101" fill="#5F5E5A">1</text>
<rect x="706" y="98" width="16" height="13" rx="3" fill="#FFFFFF" stroke="#B4B2A9"/><text x="714" y="108" fill="#5F5E5A">1</text>
<rect x="706" y="142" width="16" height="13" rx="3" fill="#FFFFFF" stroke="#B4B2A9"/><text x="714" y="152" fill="#5F5E5A">1</text>
<rect x="351" y="113" width="16" height="13" rx="3" fill="#FFFFFF" stroke="#B4B2A9"/><text x="359" y="123" fill="#5F5E5A">1</text>
<rect x="351" y="131" width="16" height="13" rx="3" fill="#FFFFFF" stroke="#B4B2A9"/><text x="359" y="141" fill="#5F5E5A">2</text>
<rect x="706" y="192" width="16" height="13" rx="3" fill="#FFFFFF" stroke="#B4B2A9"/><text x="714" y="202" fill="#5F5E5A">2</text>
<rect x="706" y="216" width="16" height="13" rx="3" fill="#FFFFFF" stroke="#B4B2A9"/><text x="714" y="226" fill="#5F5E5A">3</text>
<rect x="706" y="246" width="16" height="13" rx="3" fill="#FFFFFF" stroke="#B4B2A9"/><text x="714" y="256" fill="#5F5E5A">3</text>
<rect x="706" y="266" width="16" height="13" rx="3" fill="#FFFFFF" stroke="#B4B2A9"/><text x="714" y="276" fill="#5F5E5A">3</text>
<rect x="706" y="287" width="16" height="13" rx="3" fill="#FFFFFF" stroke="#B4B2A9"/><text x="714" y="297" fill="#5F5E5A">3</text>
<rect x="706" y="312" width="16" height="13" rx="3" fill="#FFFFFF" stroke="#B4B2A9"/><text x="714" y="322" fill="#5F5E5A">3</text>
<rect x="706" y="332" width="16" height="13" rx="3" fill="#FFFFFF" stroke="#B4B2A9"/><text x="714" y="342" fill="#5F5E5A">3</text>
<rect x="706" y="347" width="16" height="13" rx="3" fill="#FFFFFF" stroke="#B4B2A9"/><text x="714" y="357" fill="#5F5E5A">3</text>
<rect x="706" y="367" width="16" height="13" rx="3" fill="#FFFFFF" stroke="#B4B2A9"/><text x="714" y="377" fill="#5F5E5A">4</text>
<rect x="706" y="397" width="16" height="13" rx="3" fill="#FFFFFF" stroke="#B4B2A9"/><text x="714" y="407" fill="#5F5E5A">4</text>
<rect x="351" y="150" width="16" height="13" rx="3" fill="#FFFFFF" stroke="#B4B2A9"/><text x="359" y="160" fill="#5F5E5A">4</text>
<rect x="706" y="178" width="34" height="13" rx="3" fill="#FFFFFF" stroke="#B4B2A9"/><text x="723" y="188" fill="#5F5E5A">FA-02</text>
<rect x="706" y="459" width="34" height="13" rx="3" fill="#FFFFFF" stroke="#B4B2A9"/><text x="723" y="469" fill="#4A1B0C">FA-02</text>
<rect x="351" y="165" width="34" height="13" rx="3" fill="#FFFFFF" stroke="#B4B2A9"/><text x="368" y="175" fill="#5F5E5A">FA-03</text>
<rect x="351" y="183" width="34" height="13" rx="3" fill="#FFFFFF" stroke="#B4B2A9"/><text x="368" y="193" fill="#5F5E5A">FA-03</text>
<rect x="351" y="202" width="34" height="13" rx="3" fill="#FFFFFF" stroke="#B4B2A9"/><text x="368" y="212" fill="#5F5E5A">FE-01</text>
<rect x="351" y="216" width="34" height="13" rx="3" fill="#FFFFFF" stroke="#B4B2A9"/><text x="368" y="226" fill="#4A1B0C">FE-01</text>
<rect x="706" y="120" width="34" height="13" rx="3" fill="#FFFFFF" stroke="#B4B2A9"/><text x="723" y="130" fill="#5F5E5A">FE-02</text>
<rect x="351" y="235" width="34" height="13" rx="3" fill="#FFFFFF" stroke="#B4B2A9"/><text x="368" y="245" fill="#5F5E5A">FE-02</text>
<rect x="706" y="158" width="34" height="13" rx="3" fill="#FFFFFF" stroke="#B4B2A9"/><text x="723" y="168" fill="#5F5E5A">FE-03</text>
<rect x="351" y="253" width="34" height="13" rx="3" fill="#FFFFFF" stroke="#B4B2A9"/><text x="368" y="263" fill="#5F5E5A">FE-03</text>
<rect x="706" y="423" width="34" height="13" rx="3" fill="#FFFFFF" stroke="#B4B2A9"/><text x="723" y="433" fill="#5F5E5A">FE-04</text>
<rect x="706" y="718" width="34" height="13" rx="3" fill="#FFFFFF" stroke="#B4B2A9"/><text x="723" y="728" fill="#5F5E5A">FE-04</text>
<rect x="351" y="272" width="34" height="13" rx="3" fill="#FFFFFF" stroke="#B4B2A9"/><text x="368" y="282" fill="#5F5E5A">FE-04</text>
</g>

<line x1="24" y1="779" x2="965" y2="779" stroke="#B4B2A9" stroke-width="1"/>
<text x="24" y="795" font-size="11" font-weight="500" fill="#5F5E5A">Cursos alternativos y de excepcion</text>
<g font-size="10">
<rect x="24" y="807" width="42" height="12" rx="3" fill="#FAECE7" stroke="#993C1D"/><text x="45" y="816" text-anchor="middle" fill="#4A1B0C">FA-01</text><text x="74" y="816" fill="#5F5E5A">Cuenta sin capsula ni Consentimiento (paso 3)</text>
<rect x="504" y="807" width="42" height="12" rx="3" fill="#FAECE7" stroke="#993C1D"/><text x="525" y="816" text-anchor="middle" fill="#4A1B0C">FA-02</text><text x="554" y="816" fill="#5F5E5A">Conversacion abierta al eliminar (paso 3)</text>
<rect x="24" y="823" width="42" height="12" rx="3" fill="#FAECE7" stroke="#993C1D"/><text x="45" y="832" text-anchor="middle" fill="#4A1B0C">FA-03</text><text x="74" y="832" fill="#5F5E5A">Cancelar la eliminacion (paso 2)</text>
<rect x="504" y="823" width="42" height="12" rx="3" fill="#FAECE7" stroke="#993C1D"/><text x="525" y="832" text-anchor="middle" fill="#4A1B0C">FE-01</text><text x="554" y="832" fill="#5F5E5A">Sesion ausente (cualquier paso)</text>
<rect x="24" y="839" width="42" height="12" rx="3" fill="#FAECE7" stroke="#993C1D"/><text x="45" y="848" text-anchor="middle" fill="#4A1B0C">FE-02</text><text x="74" y="848" fill="#5F5E5A">Permiso insuficiente (paso 2)</text>
<rect x="504" y="839" width="42" height="12" rx="3" fill="#FAECE7" stroke="#993C1D"/><text x="525" y="848" text-anchor="middle" fill="#4A1B0C">FE-03</text><text x="554" y="848" fill="#5F5E5A">Entrada invalida (paso 2)</text>
<rect x="24" y="855" width="42" height="12" rx="3" fill="#FAECE7" stroke="#993C1D"/><text x="45" y="864" text-anchor="middle" fill="#4A1B0C">FE-04</text><text x="74" y="864" fill="#5F5E5A">Cascada interrumpida (paso 3)</text>
</g>

<line x1="24" y1="881" x2="965" y2="881" stroke="#B4B2A9" stroke-width="1"/>
<g font-size="11">
<rect x="24" y="892" width="13" height="13" rx="2" fill="#E6F1FB" stroke="#185FA5"/>
<g fill="none" stroke="#185FA5" stroke-width="1.3"><line x1="23.5" y1="892.5" x2="23.5" y2="904.5"/><line x1="23.5" y1="898.5" x2="27.5" y2="898.5"/><circle cx="32.5" cy="898.5" r="5"/></g>
<text x="44" y="902" fill="#5F5E5A">Objeto tipo Borde</text>
<rect x="155.4" y="892" width="13" height="13" rx="2" fill="#E1F5EE" stroke="#0F6E56"/>
<g fill="none" stroke="#0F6E56" stroke-width="1.3"><circle cx="161.9" cy="898.5" r="5.5"/><polyline points="160.4,891.0 164.4,893.3 160.1,895.7"/></g>
<text x="175.4" y="902" fill="#5F5E5A">Controlador</text>
<rect x="249.60000000000002" y="892" width="13" height="13" rx="2" fill="#EEEDFE" stroke="#534AB7"/>
<g fill="none" stroke="#534AB7" stroke-width="1.3"><circle cx="256.1" cy="897.0" r="5.5"/><line x1="249.60000000000002" y1="904.5" x2="262.6" y2="904.5"/></g>
<text x="269.6" y="902" fill="#5F5E5A">Entidad</text>
</g>
<g font-size="11">
<rect x="24" y="914" width="13" height="13" rx="2" fill="#FAECE7" stroke="#993C1D"/><text x="44" y="924" fill="#5F5E5A">Participa solo en un curso alternativo o de excepcion</text>
<rect x="384" y="914" width="13" height="13" rx="2" fill="#EEEDFE" stroke="#534AB7" stroke-dasharray="4 3"/><text x="404" y="924" fill="#5F5E5A">Entidad descubierta, ausente de MD-01</text>
<line x1="694" y1="921" x2="724" y2="921" stroke="#8a8a8a" stroke-width="1"/><text x="732" y="924" fill="#5F5E5A">Asociacion de comunicacion (sin direccion)</text>
</g>
</svg>
