<svg xmlns="http://www.w3.org/2000/svg" width="1340" height="1368" viewBox="0 0 1340 1368" role="img" font-family="Segoe UI, Helvetica, Arial, sans-serif">
<title>DR-07 — Analisis de robustez de CU-07 «Derivar ante peligro»</title>
<desc>Diagrama de robustez ICONIX de Analisis de robustez de CU-07 «Derivar ante peligro». 1 actor(es), 2 objeto(s) tipo Borde, 12 Controlador(es) y 5 Entidad(es), en cuatro carriles verticales. Los objetos en terracota participan solo en cursos alternativos o de excepcion; la entidad con borde punteado es un descubrimiento de robustez ausente del modelo de dominio MD-01. Vista derivada: la fuente de verdad es el archivo .puml.</desc>

<rect x="0" y="0" width="1340" height="1368" fill="#FFFFFF"/>

<text x="24" y="26" font-size="14" font-weight="500" fill="#2C2C2A">DR-07 · Analisis de robustez de CU-07 «Derivar ante peligro»</text>
<g font-size="11" font-weight="500" fill="#5F5E5A" text-anchor="middle">
<text x="72" y="56">Actor</text>
<text x="322" y="56">Objeto tipo Borde</text>
<text x="752" y="56">Controlador</text>
<text x="1222" y="56">Entidad</text>
</g>
<line x1="24" y1="64" x2="1305" y2="64" stroke="#B4B2A9" stroke-width="1"/>

<g fill="none" stroke="#8a8a8a" stroke-width="1">
<polyline points="84,90 201,90 201,97 225,97"/>
<polyline points="84,106 201,106 201,213 225,213"/>
<polyline points="420,114 496,114 496,114 615,114"/>
<polyline points="890,97 1058,97 1058,97 1140,97"/>
<polyline points="890,131 1068,131 1068,162 1140,162"/>
<polyline points="890,148 966,148 966,213 890,213"/>
<polyline points="890,230 1068,230 1068,179 1140,179"/>
<polyline points="890,247 966,247 966,295 890,295"/>
<polyline points="420,230 531,230 531,312 615,312"/>
<polyline points="890,329 966,329 966,445 890,445"/>
<polyline points="890,411 1068,411 1068,262 1140,262"/>
<polyline points="420,247 543,247 543,428 615,428"/>
<polyline points="890,462 966,462 966,544 890,544"/>
<polyline points="890,527 1078,527 1078,196 1140,196"/>
<polyline points="890,561 966,561 966,677 890,677"/>
<polyline points="890,660 1098,660 1098,312 1140,312"/>
<polyline points="420,131 496,131 496,643 615,643"/>
<polyline points="420,264 554,264 554,776 615,776"/>
<polyline points="890,793 1108,793 1108,329 1140,329"/>
<polyline points="420,148 508,148 508,742 615,742"/>
<polyline points="890,694 966,694 966,875 890,875"/>
<polyline points="890,841 1058,841 1058,114 1140,114"/>
<polyline points="890,858 1088,858 1088,213 1140,213"/>
<polyline points="890,479 1014,479 1014,940 890,940"/>
<polyline points="420,281 566,281 566,923 615,923"/>
<polyline points="890,957 1026,957 1026,578 890,578"/>
<polyline points="420,165 519,165 519,1005 615,1005"/>
<polyline points="420,298 578,298 578,1023 615,1023"/>
<polyline points="890,759 978,759 978,165 890,165"/>
<polyline points="890,346 990,346 990,1089 890,1089"/>
<polyline points="420,315 589,315 589,1071 615,1071"/>
<polyline points="890,363 1002,363 1002,1137 890,1137"/>
<polyline points="890,1154 1118,1154 1118,378 1140,378" stroke="#993C1D" stroke-dasharray="5 3"/>
<polyline points="890,1171 1038,1171 1038,595 890,595"/>
</g>

<g fill="none" stroke="#2C2C2A" stroke-width="1.4"><circle cx="72.0" cy="92" r="9"/><line x1="72.0" y1="101" x2="72.0" y2="123"/><line x1="60.0" y1="110" x2="84.0" y2="110"/><line x1="72.0" y1="123" x2="62.0" y2="138"/><line x1="72.0" y1="123" x2="82.0" y2="138"/></g>
<g font-size="11" text-anchor="middle" fill="#2C2C2A">
<text x="72" y="154">Usuario adulto</text>
</g>
<rect x="225" y="80" width="195" height="102" rx="4" fill="#E6F1FB" stroke="#185FA5"/>
<g fill="none" stroke="#185FA5" stroke-width="1.3"><line x1="235" y1="125.0" x2="235" y2="137.0"/><line x1="235" y1="131.0" x2="239" y2="131.0"/><circle cx="244" cy="131.0" r="5"/></g>
<g font-size="11" fill="#0C447C">
<text x="257" y="127">Chat con el acompanante</text>
<text x="257" y="142">(P-10)</text>
</g>
<rect x="225" y="196" width="195" height="136" rx="4" fill="#E6F1FB" stroke="#185FA5"/>
<g fill="none" stroke="#185FA5" stroke-width="1.3"><line x1="235" y1="258.0" x2="235" y2="270.0"/><line x1="235" y1="264.0" x2="239" y2="264.0"/><circle cx="244" cy="264.0" r="5"/></g>
<g font-size="11" fill="#0C447C">
<text x="257" y="260">Contencion y derivacion</text>
<text x="257" y="275">(P-12)</text>
</g>
<rect x="615" y="80" width="275" height="102" rx="4" fill="#E1F5EE" stroke="#0F6E56"/>
<g fill="none" stroke="#0F6E56" stroke-width="1.3"><circle cx="632" cy="131.0" r="5.5"/><polyline points="630.5,123.5 634.5,125.8 630.2,128.2"/></g>
<g font-size="11" fill="#04342C">
<text x="647" y="127">Detectar el peligro explicito y</text>
<text x="647" y="142">suspender la respuesta ordinaria</text>
</g>
<rect x="615" y="196" width="275" height="68" rx="4" fill="#E1F5EE" stroke="#0F6E56"/>
<g fill="none" stroke="#0F6E56" stroke-width="1.3"><circle cx="632" cy="230.0" r="5.5"/><polyline points="630.5,222.5 634.5,224.8 630.2,227.2"/></g>
<g font-size="11" fill="#04342C">
<text x="647" y="234">Mantener el modo seguro</text>
</g>
<rect x="615" y="278" width="275" height="102" rx="4" fill="#E1F5EE" stroke="#0F6E56"/>
<g fill="none" stroke="#0F6E56" stroke-width="1.3"><circle cx="632" cy="329.0" r="5.5"/><polyline points="630.5,321.5 634.5,323.8 630.2,326.2"/></g>
<g font-size="11" fill="#04342C">
<text x="647" y="332">Presentar el texto fijo de contencion</text>
</g>
<rect x="615" y="394" width="275" height="102" rx="4" fill="#E1F5EE" stroke="#0F6E56"/>
<g fill="none" stroke="#0F6E56" stroke-width="1.3"><circle cx="632" cy="445.0" r="5.5"/><polyline points="630.5,437.5 634.5,439.8 630.2,442.2"/></g>
<g font-size="11" fill="#04342C">
<text x="647" y="441">Derivar a los recursos de ayuda del</text>
<text x="647" y="456">entorno</text>
</g>
<rect x="615" y="510" width="275" height="102" rx="4" fill="#E1F5EE" stroke="#0F6E56"/>
<g fill="none" stroke="#0F6E56" stroke-width="1.3"><circle cx="632" cy="561.0" r="5.5"/><polyline points="630.5,553.5 634.5,555.8 630.2,558.2"/></g>
<g font-size="11" fill="#04342C">
<text x="647" y="564">Marcar el turno como fallback seguro</text>
</g>
<rect x="615" y="626" width="275" height="85" rx="4" fill="#E1F5EE" stroke="#0F6E56"/>
<g fill="none" stroke="#0F6E56" stroke-width="1.3"><circle cx="632" cy="668.5" r="5.5"/><polyline points="630.5,661.0 634.5,663.3 630.2,665.7"/></g>
<g font-size="11" fill="#04342C">
<text x="647" y="672">Bloquear el chat ordinario de la sesion</text>
</g>
<rect x="615" y="725" width="275" height="85" rx="4" fill="#E1F5EE" stroke="#0F6E56"/>
<g fill="none" stroke="#0F6E56" stroke-width="1.3"><circle cx="632" cy="767.5" r="5.5"/><polyline points="630.5,760.0 634.5,762.3 630.2,764.7"/></g>
<g font-size="11" fill="#04342C">
<text x="647" y="771">Permitir abrir una conversacion nueva</text>
</g>
<rect x="615" y="824" width="275" height="68" rx="4" fill="#E1F5EE" stroke="#0F6E56"/>
<g fill="none" stroke="#0F6E56" stroke-width="1.3"><circle cx="632" cy="858.0" r="5.5"/><polyline points="630.5,850.5 634.5,852.8 630.2,855.2"/></g>
<g font-size="11" fill="#04342C">
<text x="647" y="862">Descartar el contenido del turno</text>
</g>
<rect x="615" y="906" width="275" height="68" rx="4" fill="#FAECE7" stroke="#993C1D"/>
<g fill="none" stroke="#993C1D" stroke-width="1.3"><circle cx="632" cy="940.0" r="5.5"/><polyline points="630.5,932.5 634.5,934.8 630.2,937.2"/></g>
<g font-size="11" fill="#4A1B0C">
<text x="647" y="936">Orientar a emergencias sin recursos</text>
<text x="647" y="951">aprovisionados</text>
</g>
<rect x="615" y="988" width="275" height="52" rx="4" fill="#FAECE7" stroke="#993C1D"/>
<g fill="none" stroke="#993C1D" stroke-width="1.3"><circle cx="632" cy="1014.0" r="5.5"/><polyline points="630.5,1006.5 634.5,1008.8 630.2,1011.2"/></g>
<g font-size="11" fill="#4A1B0C">
<text x="647" y="1010">Mantener visible la contencion sin</text>
<text x="647" y="1025">reabrir el chat</text>
</g>
<rect x="615" y="1054" width="275" height="52" rx="4" fill="#FAECE7" stroke="#993C1D"/>
<g fill="none" stroke="#993C1D" stroke-width="1.3"><circle cx="632" cy="1080.0" r="5.5"/><polyline points="630.5,1072.5 634.5,1074.8 630.2,1077.2"/></g>
<g font-size="11" fill="#4A1B0C">
<text x="647" y="1076">Presentar la orientacion minima</text>
<text x="647" y="1091">invariable</text>
</g>
<rect x="615" y="1120" width="275" height="68" rx="4" fill="#FAECE7" stroke="#993C1D"/>
<g fill="none" stroke="#993C1D" stroke-width="1.3"><circle cx="632" cy="1154.0" r="5.5"/><polyline points="630.5,1146.5 634.5,1148.8 630.2,1151.2"/></g>
<g font-size="11" fill="#4A1B0C">
<text x="647" y="1150">Completar la derivacion pese al kill</text>
<text x="647" y="1165">switch</text>
</g>
<rect x="1140" y="80" width="165" height="51" rx="4" fill="#EEEDFE" stroke="#534AB7"/>
<g fill="none" stroke="#534AB7" stroke-width="1.3"><circle cx="1157" cy="104.0" r="5.5"/><line x1="1150.5" y1="111.5" x2="1163.5" y2="111.5"/></g>
<g font-size="11" fill="#26215C">
<text x="1172" y="109">Mensaje</text>
</g>
<rect x="1140" y="145" width="165" height="85" rx="4" fill="#EEEDFE" stroke="#534AB7"/>
<g fill="none" stroke="#534AB7" stroke-width="1.3"><circle cx="1157" cy="186.0" r="5.5"/><line x1="1150.5" y1="193.5" x2="1163.5" y2="193.5"/></g>
<g font-size="11" fill="#26215C">
<text x="1172" y="191">EventoDeSeguridad</text>
</g>
<rect x="1140" y="244" width="165" height="37" rx="4" fill="#EEEDFE" stroke="#534AB7"/>
<g fill="none" stroke="#534AB7" stroke-width="1.3"><circle cx="1157" cy="261.0" r="5.5"/><line x1="1150.5" y1="268.5" x2="1163.5" y2="268.5"/></g>
<g font-size="11" fill="#26215C">
<text x="1172" y="266">RecursoDeAyuda</text>
</g>
<rect x="1140" y="295" width="165" height="51" rx="4" fill="#EEEDFE" stroke="#534AB7"/>
<g fill="none" stroke="#534AB7" stroke-width="1.3"><circle cx="1157" cy="319.0" r="5.5"/><line x1="1150.5" y1="326.5" x2="1163.5" y2="326.5"/></g>
<g font-size="11" fill="#26215C">
<text x="1172" y="324">Conversacion</text>
</g>
<rect x="1140" y="360" width="165" height="37" rx="4" fill="#FAECE7" stroke="#993C1D"/>
<g fill="none" stroke="#993C1D" stroke-width="1.3"><circle cx="1157" cy="377.0" r="5.5"/><line x1="1150.5" y1="384.5" x2="1163.5" y2="384.5"/></g>
<g font-size="11" fill="#4A1B0C">
<text x="1172" y="382">DisponibilidadDelChatbot</text>
</g>

<g font-size="9" text-anchor="middle">
<rect x="129" y="82" width="39" height="13" rx="3" fill="#FFFFFF" stroke="#B4B2A9"/><text x="149" y="92" fill="#5F5E5A">PRE-02</text>
<rect x="129" y="100" width="16" height="13" rx="3" fill="#FFFFFF" stroke="#B4B2A9"/><text x="137" y="110" fill="#5F5E5A">7</text>
<rect x="429" y="107" width="16" height="13" rx="3" fill="#FFFFFF" stroke="#B4B2A9"/><text x="437" y="117" fill="#5F5E5A">1</text>
<rect x="899" y="90" width="16" height="13" rx="3" fill="#FFFFFF" stroke="#B4B2A9"/><text x="907" y="100" fill="#5F5E5A">1</text>
<rect x="899" y="124" width="16" height="13" rx="3" fill="#FFFFFF" stroke="#B4B2A9"/><text x="907" y="134" fill="#5F5E5A">1</text>
<rect x="899" y="141" width="44" height="13" rx="3" fill="#FFFFFF" stroke="#B4B2A9"/><text x="921" y="151" fill="#5F5E5A">2 FE-01</text>
<rect x="899" y="223" width="16" height="13" rx="3" fill="#FFFFFF" stroke="#B4B2A9"/><text x="907" y="233" fill="#5F5E5A">2</text>
<rect x="899" y="240" width="16" height="13" rx="3" fill="#FFFFFF" stroke="#B4B2A9"/><text x="907" y="250" fill="#5F5E5A">3</text>
<rect x="429" y="223" width="16" height="13" rx="3" fill="#FFFFFF" stroke="#B4B2A9"/><text x="437" y="233" fill="#5F5E5A">3</text>
<rect x="899" y="322" width="16" height="13" rx="3" fill="#FFFFFF" stroke="#B4B2A9"/><text x="907" y="332" fill="#5F5E5A">4</text>
<rect x="899" y="404" width="16" height="13" rx="3" fill="#FFFFFF" stroke="#B4B2A9"/><text x="907" y="414" fill="#5F5E5A">4</text>
<rect x="429" y="240" width="16" height="13" rx="3" fill="#FFFFFF" stroke="#B4B2A9"/><text x="437" y="250" fill="#5F5E5A">4</text>
<rect x="899" y="455" width="16" height="13" rx="3" fill="#FFFFFF" stroke="#B4B2A9"/><text x="907" y="465" fill="#5F5E5A">5</text>
<rect x="899" y="520" width="16" height="13" rx="3" fill="#FFFFFF" stroke="#B4B2A9"/><text x="907" y="530" fill="#5F5E5A">5</text>
<rect x="899" y="554" width="16" height="13" rx="3" fill="#FFFFFF" stroke="#B4B2A9"/><text x="907" y="564" fill="#5F5E5A">6</text>
<rect x="899" y="653" width="16" height="13" rx="3" fill="#FFFFFF" stroke="#B4B2A9"/><text x="907" y="663" fill="#5F5E5A">6</text>
<rect x="429" y="124" width="16" height="13" rx="3" fill="#FFFFFF" stroke="#B4B2A9"/><text x="437" y="134" fill="#5F5E5A">6</text>
<rect x="429" y="257" width="16" height="13" rx="3" fill="#FFFFFF" stroke="#B4B2A9"/><text x="437" y="267" fill="#5F5E5A">7</text>
<rect x="899" y="786" width="16" height="13" rx="3" fill="#FFFFFF" stroke="#B4B2A9"/><text x="907" y="796" fill="#5F5E5A">7</text>
<rect x="429" y="141" width="16" height="13" rx="3" fill="#FFFFFF" stroke="#B4B2A9"/><text x="437" y="151" fill="#5F5E5A">7</text>
<rect x="899" y="687" width="16" height="13" rx="3" fill="#FFFFFF" stroke="#B4B2A9"/><text x="907" y="697" fill="#5F5E5A">8</text>
<rect x="899" y="834" width="16" height="13" rx="3" fill="#FFFFFF" stroke="#B4B2A9"/><text x="907" y="844" fill="#5F5E5A">8</text>
<rect x="899" y="851" width="16" height="13" rx="3" fill="#FFFFFF" stroke="#B4B2A9"/><text x="907" y="861" fill="#5F5E5A">8</text>
<rect x="899" y="472" width="34" height="13" rx="3" fill="#FFFFFF" stroke="#B4B2A9"/><text x="916" y="482" fill="#5F5E5A">FA-01</text>
<rect x="429" y="274" width="34" height="13" rx="3" fill="#FFFFFF" stroke="#B4B2A9"/><text x="446" y="284" fill="#5F5E5A">FA-01</text>
<rect x="899" y="950" width="34" height="13" rx="3" fill="#FFFFFF" stroke="#B4B2A9"/><text x="916" y="960" fill="#5F5E5A">FA-01</text>
<rect x="429" y="158" width="34" height="13" rx="3" fill="#FFFFFF" stroke="#B4B2A9"/><text x="446" y="168" fill="#5F5E5A">FA-02</text>
<rect x="429" y="291" width="34" height="13" rx="3" fill="#FFFFFF" stroke="#B4B2A9"/><text x="446" y="301" fill="#5F5E5A">FA-02</text>
<rect x="899" y="752" width="34" height="13" rx="3" fill="#FFFFFF" stroke="#B4B2A9"/><text x="916" y="762" fill="#5F5E5A">FA-03</text>
<rect x="899" y="339" width="34" height="13" rx="3" fill="#FFFFFF" stroke="#B4B2A9"/><text x="916" y="349" fill="#5F5E5A">FE-02</text>
<rect x="429" y="308" width="34" height="13" rx="3" fill="#FFFFFF" stroke="#B4B2A9"/><text x="446" y="318" fill="#5F5E5A">FE-02</text>
<rect x="899" y="356" width="34" height="13" rx="3" fill="#FFFFFF" stroke="#B4B2A9"/><text x="916" y="366" fill="#5F5E5A">FE-03</text>
<rect x="899" y="1147" width="34" height="13" rx="3" fill="#FFFFFF" stroke="#B4B2A9"/><text x="916" y="1157" fill="#4A1B0C">FE-03</text>
<rect x="899" y="1164" width="34" height="13" rx="3" fill="#FFFFFF" stroke="#B4B2A9"/><text x="916" y="1174" fill="#5F5E5A">FE-03</text>
</g>

<line x1="24" y1="1214" x2="1305" y2="1214" stroke="#B4B2A9" stroke-width="1"/>
<text x="24" y="1230" font-size="11" font-weight="500" fill="#5F5E5A">Cursos alternativos y de excepcion</text>
<g font-size="10">
<rect x="24" y="1242" width="42" height="12" rx="3" fill="#FAECE7" stroke="#993C1D"/><text x="45" y="1251" text-anchor="middle" fill="#4A1B0C">FA-01</text><text x="74" y="1251" fill="#5F5E5A">Sin RecursoDeAyuda presentables (paso 4)</text>
<rect x="664" y="1242" width="42" height="12" rx="3" fill="#FAECE7" stroke="#993C1D"/><text x="685" y="1251" text-anchor="middle" fill="#4A1B0C">FA-02</text><text x="714" y="1251" fill="#5F5E5A">Turno adicional con el chat ya suspendido (despues del paso</text>
<rect x="24" y="1258" width="42" height="12" rx="3" fill="#FAECE7" stroke="#993C1D"/><text x="45" y="1267" text-anchor="middle" fill="#4A1B0C">FA-03</text><text x="74" y="1267" fill="#5F5E5A">Peligro explicito de nuevo en la sesion siguiente (paso 7)</text>
<rect x="664" y="1258" width="42" height="12" rx="3" fill="#FAECE7" stroke="#993C1D"/><text x="685" y="1267" text-anchor="middle" fill="#4A1B0C">FE-01</text><text x="714" y="1267" fill="#5F5E5A">Proveedor LLM o red caidos (cualquier paso)</text>
<rect x="24" y="1274" width="42" height="12" rx="3" fill="#FAECE7" stroke="#993C1D"/><text x="45" y="1283" text-anchor="middle" fill="#4A1B0C">FE-02</text><text x="74" y="1283" fill="#5F5E5A">Texto de contencion no resoluble (paso 3)</text>
<rect x="664" y="1274" width="42" height="12" rx="3" fill="#FAECE7" stroke="#993C1D"/><text x="685" y="1283" text-anchor="middle" fill="#4A1B0C">FE-03</text><text x="714" y="1283" fill="#5F5E5A">Kill switch activado durante la derivacion (pasos 3-6)</text>
</g>

<line x1="24" y1="1300" x2="1305" y2="1300" stroke="#B4B2A9" stroke-width="1"/>
<g font-size="11">
<rect x="24" y="1311" width="13" height="13" rx="2" fill="#E6F1FB" stroke="#185FA5"/>
<g fill="none" stroke="#185FA5" stroke-width="1.3"><line x1="23.5" y1="1311.5" x2="23.5" y2="1323.5"/><line x1="23.5" y1="1317.5" x2="27.5" y2="1317.5"/><circle cx="32.5" cy="1317.5" r="5"/></g>
<text x="44" y="1321" fill="#5F5E5A">Objeto tipo Borde</text>
<rect x="155.4" y="1311" width="13" height="13" rx="2" fill="#E1F5EE" stroke="#0F6E56"/>
<g fill="none" stroke="#0F6E56" stroke-width="1.3"><circle cx="161.9" cy="1317.5" r="5.5"/><polyline points="160.4,1310.0 164.4,1312.3 160.1,1314.7"/></g>
<text x="175.4" y="1321" fill="#5F5E5A">Controlador</text>
<rect x="249.60000000000002" y="1311" width="13" height="13" rx="2" fill="#EEEDFE" stroke="#534AB7"/>
<g fill="none" stroke="#534AB7" stroke-width="1.3"><circle cx="256.1" cy="1316.0" r="5.5"/><line x1="249.60000000000002" y1="1323.5" x2="262.6" y2="1323.5"/></g>
<text x="269.6" y="1321" fill="#5F5E5A">Entidad</text>
</g>
<g font-size="11">
<rect x="24" y="1333" width="13" height="13" rx="2" fill="#FAECE7" stroke="#993C1D"/><text x="44" y="1343" fill="#5F5E5A">Participa solo en un curso alternativo o de excepcion</text>
<rect x="384" y="1333" width="13" height="13" rx="2" fill="#EEEDFE" stroke="#534AB7" stroke-dasharray="4 3"/><text x="404" y="1343" fill="#5F5E5A">Entidad descubierta, ausente de MD-01</text>
<line x1="830" y1="1340" x2="860" y2="1340" stroke="#8a8a8a" stroke-width="1"/><text x="868" y="1343" fill="#5F5E5A">Asociacion de comunicacion (sin direccion)</text>
</g>
</svg>
